%TF.GenerationSoftware,KiCad,Pcbnew,9.0.1*%
%TF.CreationDate,2025-06-06T15:08:55-07:00*%
%TF.ProjectId,basic_keychain,62617369-635f-46b6-9579-636861696e2e,rev?*%
%TF.SameCoordinates,Original*%
%TF.FileFunction,Profile,NP*%
%FSLAX45Y45*%
G04 Gerber Fmt 4.5, Leading zero omitted, Abs format (unit mm)*
G04 Created by KiCad (PCBNEW 9.0.1) date 2025-06-06 15:08:55*
%MOMM*%
%LPD*%
G01*
G04 APERTURE LIST*
%TA.AperFunction,Profile*%
%ADD10C,0.264582*%
%TD*%
G04 APERTURE END LIST*
D10*
X23171992Y-9542776D02*
X23189153Y-9544081D01*
X23206064Y-9546230D01*
X23222704Y-9549202D01*
X23239053Y-9552975D01*
X23255088Y-9557528D01*
X23270789Y-9562841D01*
X23286135Y-9568891D01*
X23301103Y-9575658D01*
X23315673Y-9583121D01*
X23329824Y-9591257D01*
X23343534Y-9600047D01*
X23356783Y-9609468D01*
X23369548Y-9619500D01*
X23381809Y-9630121D01*
X23393545Y-9641309D01*
X23404734Y-9653045D01*
X23415355Y-9665306D01*
X23425386Y-9678071D01*
X23434807Y-9691320D01*
X23443597Y-9705030D01*
X23451733Y-9719181D01*
X23459196Y-9733751D01*
X23465963Y-9748720D01*
X23472013Y-9764065D01*
X23477326Y-9779766D01*
X23481879Y-9795801D01*
X23485653Y-9812150D01*
X23488624Y-9828790D01*
X23490773Y-9845702D01*
X23492078Y-9862862D01*
X23492518Y-9880251D01*
X23492518Y-11729651D01*
X23492078Y-11747041D01*
X23490773Y-11764201D01*
X23488624Y-11781113D01*
X23485653Y-11797753D01*
X23481879Y-11814102D01*
X23477326Y-11830137D01*
X23472013Y-11845838D01*
X23465963Y-11861183D01*
X23459196Y-11876152D01*
X23451733Y-11890722D01*
X23443597Y-11904873D01*
X23434807Y-11918583D01*
X23425386Y-11931832D01*
X23415355Y-11944597D01*
X23404734Y-11956858D01*
X23393545Y-11968594D01*
X23381809Y-11979782D01*
X23369548Y-11990403D01*
X23356783Y-12000435D01*
X23343534Y-12009856D01*
X23329824Y-12018646D01*
X23315673Y-12026782D01*
X23301103Y-12034245D01*
X23286135Y-12041012D01*
X23270789Y-12047062D01*
X23255088Y-12052375D01*
X23239053Y-12056928D01*
X23222704Y-12060701D01*
X23206064Y-12063673D01*
X23189153Y-12065822D01*
X23171992Y-12067127D01*
X23154603Y-12067567D01*
X21305203Y-12067567D01*
X21287814Y-12067127D01*
X21270653Y-12065822D01*
X21253741Y-12063673D01*
X21237101Y-12060701D01*
X21220752Y-12056928D01*
X21204717Y-12052375D01*
X21189016Y-12047062D01*
X21173671Y-12041012D01*
X21158702Y-12034245D01*
X21144132Y-12026782D01*
X21129981Y-12018646D01*
X21116271Y-12009856D01*
X21103023Y-12000435D01*
X21090257Y-11990403D01*
X21077996Y-11979782D01*
X21066261Y-11968594D01*
X21055072Y-11956858D01*
X21044451Y-11944597D01*
X21034419Y-11931832D01*
X21024998Y-11918583D01*
X21016209Y-11904873D01*
X21008072Y-11890722D01*
X21000610Y-11876152D01*
X20993843Y-11861183D01*
X20987792Y-11845838D01*
X20982479Y-11830137D01*
X20977926Y-11814102D01*
X20974153Y-11797753D01*
X20971181Y-11781113D01*
X20969032Y-11764201D01*
X20967727Y-11747041D01*
X20967287Y-11729651D01*
X20967287Y-9880251D01*
X20967727Y-9862862D01*
X20969032Y-9845702D01*
X20971181Y-9828790D01*
X20974153Y-9812150D01*
X20977926Y-9795801D01*
X20982479Y-9779766D01*
X20987792Y-9764065D01*
X20993843Y-9748720D01*
X21000610Y-9733751D01*
X21008072Y-9719181D01*
X21016209Y-9705030D01*
X21024998Y-9691320D01*
X21034419Y-9678071D01*
X21044451Y-9665306D01*
X21055072Y-9653045D01*
X21066261Y-9641309D01*
X21077996Y-9630121D01*
X21090257Y-9619500D01*
X21103023Y-9609468D01*
X21116271Y-9600047D01*
X21129981Y-9591257D01*
X21144132Y-9583121D01*
X21158702Y-9575658D01*
X21173671Y-9568891D01*
X21189016Y-9562841D01*
X21204717Y-9557528D01*
X21220752Y-9552975D01*
X21237101Y-9549202D01*
X21253741Y-9546230D01*
X21270653Y-9544081D01*
X21287814Y-9542776D01*
X21305203Y-9542336D01*
X23154603Y-9542336D01*
X23171992Y-9542776D01*
X21305520Y-9743440D02*
X21312593Y-9743978D01*
X21319563Y-9744864D01*
X21326422Y-9746088D01*
X21333160Y-9747644D01*
X21339769Y-9749520D01*
X21346241Y-9751710D01*
X21352565Y-9754204D01*
X21358735Y-9756993D01*
X21364740Y-9760069D01*
X21370573Y-9763422D01*
X21376223Y-9767045D01*
X21381684Y-9770928D01*
X21386945Y-9775063D01*
X21391999Y-9779440D01*
X21396836Y-9784052D01*
X21401447Y-9788889D01*
X21405825Y-9793942D01*
X21409960Y-9799204D01*
X21413843Y-9804664D01*
X21417465Y-9810315D01*
X21420819Y-9816147D01*
X21423895Y-9822153D01*
X21426684Y-9828322D01*
X21429178Y-9834647D01*
X21431367Y-9841118D01*
X21433244Y-9847727D01*
X21434799Y-9854466D01*
X21436024Y-9861324D01*
X21436910Y-9868294D01*
X21437448Y-9875368D01*
X21437629Y-9882535D01*
X21437629Y-10156520D01*
X21437448Y-10163687D01*
X21436910Y-10170760D01*
X21436024Y-10177730D01*
X21434799Y-10184589D01*
X21433244Y-10191327D01*
X21431367Y-10197936D01*
X21429178Y-10204408D01*
X21426684Y-10210732D01*
X21423895Y-10216902D01*
X21420819Y-10222907D01*
X21417465Y-10228739D01*
X21413843Y-10234390D01*
X21409960Y-10239851D01*
X21405825Y-10245112D01*
X21401447Y-10250166D01*
X21396836Y-10255003D01*
X21391999Y-10259614D01*
X21386945Y-10263992D01*
X21381684Y-10268126D01*
X21376223Y-10272010D01*
X21370573Y-10275632D01*
X21364740Y-10278986D01*
X21358735Y-10282062D01*
X21352565Y-10284851D01*
X21346241Y-10287344D01*
X21339769Y-10289534D01*
X21333160Y-10291411D01*
X21326422Y-10292966D01*
X21319563Y-10294191D01*
X21312593Y-10295077D01*
X21305520Y-10295614D01*
X21298353Y-10295796D01*
X21291186Y-10295614D01*
X21284113Y-10295077D01*
X21277143Y-10294191D01*
X21270284Y-10292966D01*
X21263546Y-10291411D01*
X21256937Y-10289534D01*
X21250465Y-10287344D01*
X21244141Y-10284851D01*
X21237971Y-10282062D01*
X21231966Y-10278986D01*
X21226133Y-10275632D01*
X21220483Y-10272010D01*
X21215022Y-10268126D01*
X21209761Y-10263992D01*
X21204707Y-10259614D01*
X21199870Y-10255003D01*
X21195258Y-10250166D01*
X21190881Y-10245112D01*
X21186746Y-10239851D01*
X21182863Y-10234390D01*
X21179241Y-10228739D01*
X21175887Y-10222907D01*
X21172811Y-10216902D01*
X21170022Y-10210732D01*
X21167528Y-10204408D01*
X21165339Y-10197936D01*
X21163462Y-10191327D01*
X21161907Y-10184589D01*
X21160682Y-10177730D01*
X21159796Y-10170760D01*
X21159258Y-10163687D01*
X21159077Y-10156520D01*
X21159077Y-9882535D01*
X21159258Y-9875368D01*
X21159796Y-9868294D01*
X21160682Y-9861324D01*
X21161907Y-9854466D01*
X21163462Y-9847727D01*
X21165339Y-9841118D01*
X21167528Y-9834647D01*
X21170022Y-9828322D01*
X21172811Y-9822153D01*
X21175887Y-9816147D01*
X21179241Y-9810315D01*
X21182863Y-9804664D01*
X21186746Y-9799204D01*
X21190881Y-9793942D01*
X21195258Y-9788889D01*
X21199870Y-9784052D01*
X21204707Y-9779440D01*
X21209761Y-9775063D01*
X21215022Y-9770928D01*
X21220483Y-9767045D01*
X21226133Y-9763422D01*
X21231966Y-9760069D01*
X21237971Y-9756993D01*
X21244141Y-9754204D01*
X21250465Y-9751710D01*
X21256937Y-9749520D01*
X21263546Y-9747644D01*
X21270284Y-9746088D01*
X21277143Y-9744864D01*
X21284113Y-9743978D01*
X21291186Y-9743440D01*
X21298353Y-9743259D01*
X21305520Y-9743440D01*
M02*
