%TF.GenerationSoftware,KiCad,Pcbnew,9.0.1*%
%TF.CreationDate,2025-06-06T15:08:54-07:00*%
%TF.ProjectId,basic_keychain,62617369-635f-46b6-9579-636861696e2e,rev?*%
%TF.SameCoordinates,Original*%
%TF.FileFunction,Legend,Top*%
%TF.FilePolarity,Positive*%
%FSLAX45Y45*%
G04 Gerber Fmt 4.5, Leading zero omitted, Abs format (unit mm)*
G04 Created by KiCad (PCBNEW 9.0.1) date 2025-06-06 15:08:54*
%MOMM*%
%LPD*%
G01*
G04 APERTURE LIST*
%ADD10C,0.000000*%
G04 APERTURE END LIST*
D10*
%TO.C,G\u002A\u002A\u002A*%
G36*
X22588597Y-10448630D02*
G01*
X22619336Y-10452946D01*
X22646456Y-10460137D01*
X22670756Y-10470557D01*
X22693036Y-10484555D01*
X22714097Y-10502484D01*
X22716454Y-10504792D01*
X22728431Y-10517508D01*
X22739167Y-10530479D01*
X22747410Y-10542168D01*
X22748702Y-10544309D01*
X22753737Y-10553871D01*
X22759103Y-10565543D01*
X22764330Y-10578110D01*
X22768948Y-10590358D01*
X22772485Y-10601070D01*
X22774473Y-10609034D01*
X22774739Y-10611583D01*
X22773449Y-10614322D01*
X22769092Y-10617117D01*
X22760937Y-10620357D01*
X22753742Y-10622731D01*
X22741794Y-10626413D01*
X22728188Y-10630457D01*
X22713760Y-10634630D01*
X22699342Y-10638703D01*
X22685770Y-10642445D01*
X22673879Y-10645626D01*
X22664502Y-10648014D01*
X22658475Y-10649379D01*
X22656612Y-10649569D01*
X22655285Y-10647031D01*
X22652284Y-10640871D01*
X22648085Y-10632080D01*
X22644258Y-10623971D01*
X22632270Y-10601988D01*
X22619143Y-10584839D01*
X22604656Y-10572352D01*
X22588587Y-10564353D01*
X22570716Y-10560670D01*
X22562893Y-10560367D01*
X22542439Y-10562371D01*
X22525374Y-10568140D01*
X22511780Y-10577598D01*
X22501741Y-10590670D01*
X22495339Y-10607281D01*
X22492786Y-10624631D01*
X22492754Y-10638164D01*
X22494881Y-10649213D01*
X22499774Y-10659160D01*
X22508037Y-10669387D01*
X22515781Y-10677104D01*
X22522062Y-10682846D01*
X22528459Y-10688177D01*
X22535598Y-10693498D01*
X22544103Y-10699211D01*
X22554598Y-10705719D01*
X22567709Y-10713423D01*
X22584060Y-10722724D01*
X22604218Y-10733993D01*
X22627437Y-10747049D01*
X22646810Y-10758312D01*
X22663040Y-10768270D01*
X22676833Y-10777411D01*
X22688891Y-10786225D01*
X22699919Y-10795200D01*
X22710622Y-10804823D01*
X22721416Y-10815298D01*
X22738137Y-10833145D01*
X22751208Y-10850032D01*
X22761493Y-10867352D01*
X22769853Y-10886497D01*
X22775074Y-10901894D01*
X22777423Y-10910136D01*
X22779056Y-10917893D01*
X22780095Y-10926380D01*
X22780658Y-10936809D01*
X22780866Y-10950392D01*
X22780871Y-10960431D01*
X22780467Y-10981545D01*
X22779222Y-10998820D01*
X22776908Y-11013470D01*
X22773296Y-11026711D01*
X22768158Y-11039756D01*
X22764484Y-11047519D01*
X22750495Y-11071541D01*
X22733881Y-11092125D01*
X22714182Y-11109639D01*
X22690934Y-11124449D01*
X22663675Y-11136922D01*
X22642395Y-11144323D01*
X22631491Y-11146734D01*
X22616694Y-11148616D01*
X22599177Y-11149949D01*
X22580110Y-11150714D01*
X22560666Y-11150892D01*
X22542016Y-11150465D01*
X22525333Y-11149413D01*
X22511787Y-11147716D01*
X22506232Y-11146537D01*
X22474638Y-11135841D01*
X22446071Y-11121063D01*
X22420516Y-11102188D01*
X22397954Y-11079202D01*
X22378369Y-11052090D01*
X22365649Y-11029093D01*
X22360422Y-11017797D01*
X22355237Y-11005415D01*
X22350424Y-10992888D01*
X22346310Y-10981157D01*
X22343223Y-10971163D01*
X22341491Y-10963846D01*
X22341443Y-10960148D01*
X22341553Y-10960004D01*
X22344891Y-10958606D01*
X22352374Y-10956424D01*
X22363150Y-10953645D01*
X22376367Y-10950457D01*
X22391173Y-10947049D01*
X22406717Y-10943607D01*
X22422148Y-10940320D01*
X22436612Y-10937375D01*
X22449258Y-10934959D01*
X22459235Y-10933262D01*
X22465691Y-10932469D01*
X22466649Y-10932435D01*
X22470384Y-10933854D01*
X22473134Y-10938793D01*
X22474461Y-10943251D01*
X22481901Y-10967174D01*
X22491091Y-10987147D01*
X22502584Y-11004169D01*
X22516186Y-11018558D01*
X22532413Y-11030446D01*
X22549888Y-11038016D01*
X22567906Y-11041353D01*
X22585760Y-11040543D01*
X22602746Y-11035673D01*
X22618159Y-11026828D01*
X22631293Y-11014094D01*
X22638317Y-11003697D01*
X22641973Y-10996849D01*
X22644285Y-10990992D01*
X22645560Y-10984604D01*
X22646100Y-10976162D01*
X22646212Y-10964248D01*
X22645635Y-10948465D01*
X22643479Y-10935979D01*
X22639106Y-10925283D01*
X22631880Y-10914874D01*
X22621163Y-10903245D01*
X22619807Y-10901891D01*
X22612214Y-10894831D01*
X22603302Y-10887553D01*
X22592566Y-10879721D01*
X22579500Y-10871003D01*
X22563597Y-10861066D01*
X22544351Y-10849574D01*
X22521256Y-10836196D01*
X22512595Y-10831248D01*
X22496855Y-10822171D01*
X22481402Y-10813057D01*
X22467212Y-10804497D01*
X22455259Y-10797082D01*
X22446518Y-10791401D01*
X22444873Y-10790267D01*
X22420657Y-10771001D01*
X22399759Y-10749738D01*
X22382698Y-10727113D01*
X22369991Y-10703758D01*
X22366122Y-10694008D01*
X22363682Y-10686554D01*
X22361981Y-10679567D01*
X22360888Y-10671864D01*
X22360270Y-10662265D01*
X22359998Y-10649586D01*
X22359943Y-10638248D01*
X22360106Y-10620499D01*
X22360722Y-10606562D01*
X22361898Y-10595170D01*
X22363740Y-10585056D01*
X22364790Y-10580684D01*
X22373643Y-10554484D01*
X22386110Y-10529995D01*
X22397012Y-10514178D01*
X22415481Y-10494705D01*
X22437656Y-10478384D01*
X22463141Y-10465351D01*
X22491541Y-10455739D01*
X22522463Y-10449685D01*
X22555512Y-10447324D01*
X22588597Y-10448630D01*
G37*
G36*
X22207184Y-10813453D02*
G01*
X22207179Y-10883290D01*
X22207165Y-10951821D01*
X22207141Y-11018871D01*
X22207108Y-11084266D01*
X22207066Y-11147830D01*
X22207016Y-11209388D01*
X22206958Y-11268766D01*
X22206892Y-11325790D01*
X22206819Y-11380283D01*
X22206739Y-11432071D01*
X22206652Y-11480980D01*
X22206559Y-11526834D01*
X22206460Y-11569459D01*
X22206356Y-11608679D01*
X22206246Y-11644321D01*
X22206132Y-11676208D01*
X22206013Y-11704167D01*
X22205890Y-11728022D01*
X22205763Y-11747598D01*
X22205632Y-11762722D01*
X22205498Y-11773216D01*
X22205362Y-11778908D01*
X22205273Y-11779950D01*
X22203333Y-11778174D01*
X22197943Y-11772944D01*
X22189251Y-11764408D01*
X22177405Y-11752714D01*
X22162553Y-11738007D01*
X22144842Y-11720435D01*
X22124421Y-11700147D01*
X22101437Y-11677288D01*
X22076039Y-11652007D01*
X22048373Y-11624451D01*
X22018588Y-11594766D01*
X21986832Y-11563100D01*
X21953253Y-11529601D01*
X21917998Y-11494416D01*
X21881215Y-11457691D01*
X21843053Y-11419575D01*
X21803659Y-11380214D01*
X21763180Y-11339756D01*
X21721765Y-11298348D01*
X21721071Y-11297654D01*
X21275036Y-10851615D01*
X21655300Y-10851615D01*
X21655366Y-10881393D01*
X21655533Y-10907533D01*
X21655799Y-10929752D01*
X21656162Y-10947767D01*
X21656619Y-10961296D01*
X21657167Y-10970056D01*
X21657247Y-10970854D01*
X21662986Y-11003722D01*
X21672713Y-11033732D01*
X21686277Y-11060688D01*
X21703526Y-11084399D01*
X21724310Y-11104671D01*
X21748476Y-11121310D01*
X21775874Y-11134125D01*
X21788517Y-11138383D01*
X21816255Y-11144686D01*
X21847308Y-11148041D01*
X21880802Y-11148390D01*
X21909747Y-11146365D01*
X21932287Y-11142478D01*
X21955836Y-11135768D01*
X21978374Y-11126916D01*
X21997711Y-11116709D01*
X22018986Y-11100575D01*
X22037879Y-11080375D01*
X22053947Y-11056753D01*
X22066744Y-11030351D01*
X22075039Y-11004970D01*
X22077167Y-10994299D01*
X22079213Y-10979622D01*
X22081084Y-10962024D01*
X22082684Y-10942588D01*
X22083921Y-10922400D01*
X22084700Y-10902543D01*
X22084910Y-10891077D01*
X22085020Y-10878988D01*
X22020120Y-10878988D01*
X21955220Y-10878988D01*
X21955175Y-10908893D01*
X21954594Y-10936453D01*
X21952832Y-10959505D01*
X21949726Y-10978528D01*
X21945112Y-10994000D01*
X21938827Y-11006399D01*
X21930706Y-11016206D01*
X21920587Y-11023899D01*
X21914812Y-11027061D01*
X21909326Y-11029500D01*
X21903779Y-11031152D01*
X21897015Y-11032169D01*
X21887876Y-11032701D01*
X21875207Y-11032898D01*
X21869788Y-11032916D01*
X21856038Y-11032880D01*
X21846168Y-11032598D01*
X21838968Y-11031877D01*
X21833229Y-11030528D01*
X21827741Y-11028358D01*
X21821516Y-11025292D01*
X21808152Y-11016209D01*
X21798034Y-11004025D01*
X21790722Y-10988133D01*
X21788071Y-10978966D01*
X21787188Y-10972843D01*
X21786360Y-10962206D01*
X21785593Y-10947631D01*
X21784896Y-10929694D01*
X21784275Y-10908972D01*
X21783737Y-10886041D01*
X21783289Y-10861477D01*
X21782939Y-10835856D01*
X21782694Y-10809754D01*
X21782561Y-10783748D01*
X21782548Y-10758413D01*
X21782661Y-10734326D01*
X21782908Y-10712062D01*
X21783296Y-10692199D01*
X21783831Y-10675311D01*
X21784179Y-10667745D01*
X21785772Y-10644302D01*
X21788018Y-10625297D01*
X21791195Y-10610092D01*
X21795582Y-10598048D01*
X21801460Y-10588526D01*
X21809107Y-10580889D01*
X21818802Y-10574497D01*
X21826693Y-10570544D01*
X21833154Y-10567904D01*
X21839650Y-10566187D01*
X21847526Y-10565205D01*
X21858130Y-10564768D01*
X21868687Y-10564687D01*
X21886620Y-10565150D01*
X21900601Y-10566804D01*
X21911697Y-10570005D01*
X21920979Y-10575111D01*
X21929515Y-10582481D01*
X21933036Y-10586227D01*
X21940317Y-10595922D01*
X21945966Y-10607321D01*
X21950129Y-10621075D01*
X21952953Y-10637838D01*
X21954582Y-10658262D01*
X21955165Y-10682999D01*
X21955170Y-10684925D01*
X21955220Y-10716102D01*
X22020120Y-10716102D01*
X22085020Y-10716102D01*
X22084980Y-10695105D01*
X22083775Y-10657170D01*
X22080248Y-10623382D01*
X22074298Y-10593311D01*
X22065825Y-10566524D01*
X22054728Y-10542589D01*
X22046311Y-10528730D01*
X22030164Y-10508143D01*
X22011304Y-10490916D01*
X21989134Y-10476618D01*
X21963058Y-10464819D01*
X21952675Y-10461125D01*
X21944300Y-10458389D01*
X21937179Y-10456334D01*
X21930342Y-10454846D01*
X21922817Y-10453810D01*
X21913636Y-10453111D01*
X21901826Y-10452632D01*
X21886418Y-10452260D01*
X21876323Y-10452064D01*
X21858384Y-10451764D01*
X21844537Y-10451675D01*
X21833785Y-10451867D01*
X21825129Y-10452409D01*
X21817575Y-10453372D01*
X21810123Y-10454826D01*
X21801779Y-10456838D01*
X21799408Y-10457445D01*
X21769256Y-10467241D01*
X21742893Y-10480241D01*
X21720130Y-10496636D01*
X21700780Y-10516616D01*
X21684654Y-10540372D01*
X21671565Y-10568093D01*
X21662256Y-10596483D01*
X21661071Y-10600914D01*
X21660055Y-10605144D01*
X21659191Y-10609588D01*
X21658465Y-10614662D01*
X21657861Y-10620780D01*
X21657364Y-10628357D01*
X21656959Y-10637809D01*
X21656632Y-10649550D01*
X21656366Y-10663995D01*
X21656147Y-10681559D01*
X21655960Y-10702657D01*
X21655789Y-10727705D01*
X21655620Y-10757117D01*
X21655484Y-10782275D01*
X21655339Y-10818481D01*
X21655300Y-10851615D01*
X21275036Y-10851615D01*
X21238781Y-10815359D01*
X21722983Y-10331157D01*
X22207184Y-9846956D01*
X22207184Y-10813453D01*
G37*
%TD*%
M02*
