%TF.GenerationSoftware,KiCad,Pcbnew,9.0.1*%
%TF.CreationDate,2025-06-06T15:08:54-07:00*%
%TF.ProjectId,basic_keychain,62617369-635f-46b6-9579-636861696e2e,rev?*%
%TF.SameCoordinates,Original*%
%TF.FileFunction,Copper,L1,Top*%
%TF.FilePolarity,Positive*%
%FSLAX45Y45*%
G04 Gerber Fmt 4.5, Leading zero omitted, Abs format (unit mm)*
G04 Created by KiCad (PCBNEW 9.0.1) date 2025-06-06 15:08:54*
%MOMM*%
%LPD*%
G01*
G04 APERTURE LIST*
%TA.AperFunction,EtchedComponent*%
%ADD10C,0.000000*%
%TD*%
G04 APERTURE END LIST*
D10*
%TA.AperFunction,EtchedComponent*%
%TO.C,G\u002A\u002A\u002A*%
G36*
X23085708Y-9541870D02*
G01*
X23156842Y-9593965D01*
X23224833Y-9650032D01*
X23289591Y-9709981D01*
X23351028Y-9773724D01*
X23409053Y-9841174D01*
X23463578Y-9912240D01*
X23473164Y-9925622D01*
X23495173Y-9956674D01*
X23494451Y-9983229D01*
X23493730Y-10009785D01*
X23475950Y-9982738D01*
X23426581Y-9912218D01*
X23373016Y-9844372D01*
X23315542Y-9779493D01*
X23254448Y-9717870D01*
X23190024Y-9659793D01*
X23122556Y-9605554D01*
X23052335Y-9555442D01*
X23049568Y-9553590D01*
X23006726Y-9525000D01*
X23033977Y-9525000D01*
X23061227Y-9525000D01*
X23085708Y-9541870D01*
G37*
%TD.AperFunction*%
%TA.AperFunction,EtchedComponent*%
G36*
X23210155Y-9542106D02*
G01*
X23244418Y-9569912D01*
X23280012Y-9600856D01*
X23316138Y-9634142D01*
X23352000Y-9668970D01*
X23386799Y-9704543D01*
X23419736Y-9740062D01*
X23450015Y-9774729D01*
X23476836Y-9807745D01*
X23480667Y-9812707D01*
X23495199Y-9831681D01*
X23494465Y-9855418D01*
X23493730Y-9879156D01*
X23479760Y-9860220D01*
X23442781Y-9812690D01*
X23401667Y-9764564D01*
X23357178Y-9716607D01*
X23310071Y-9669586D01*
X23261107Y-9624265D01*
X23211045Y-9581410D01*
X23174127Y-9552034D01*
X23139004Y-9525000D01*
X23163602Y-9525000D01*
X23188200Y-9525000D01*
X23210155Y-9542106D01*
G37*
%TD.AperFunction*%
%TA.AperFunction,EtchedComponent*%
G36*
X23494881Y-11755233D02*
G01*
X23495000Y-11779476D01*
X23475545Y-11803493D01*
X23433344Y-11853236D01*
X23387593Y-11902840D01*
X23339447Y-11951153D01*
X23290061Y-11997022D01*
X23240589Y-12039295D01*
X23233090Y-12045369D01*
X23208669Y-12065000D01*
X23184920Y-12065000D01*
X23173887Y-12064898D01*
X23167221Y-12064513D01*
X23164210Y-12063723D01*
X23164144Y-12062409D01*
X23164891Y-12061611D01*
X23168006Y-12058996D01*
X23174398Y-12053797D01*
X23183360Y-12046580D01*
X23194185Y-12037915D01*
X23205440Y-12028951D01*
X23258396Y-11985027D01*
X23308921Y-11939261D01*
X23357671Y-11890980D01*
X23405303Y-11839513D01*
X23452473Y-11784188D01*
X23487896Y-11739818D01*
X23494761Y-11730990D01*
X23494881Y-11755233D01*
G37*
%TD.AperFunction*%
%TA.AperFunction,EtchedComponent*%
G36*
X23494909Y-11872671D02*
G01*
X23495000Y-11892432D01*
X23469053Y-11920931D01*
X23448799Y-11942630D01*
X23425948Y-11966181D01*
X23401851Y-11990241D01*
X23377860Y-12013466D01*
X23355327Y-12034513D01*
X23349284Y-12039993D01*
X23321497Y-12065000D01*
X23302203Y-12064930D01*
X23282910Y-12064860D01*
X23299420Y-12050325D01*
X23305621Y-12044630D01*
X23314814Y-12035869D01*
X23326506Y-12024534D01*
X23340207Y-12011116D01*
X23355425Y-11996106D01*
X23371669Y-11979996D01*
X23388447Y-11963277D01*
X23405268Y-11946439D01*
X23421641Y-11929975D01*
X23437074Y-11914376D01*
X23451075Y-11900132D01*
X23463155Y-11887736D01*
X23472821Y-11877678D01*
X23479581Y-11870449D01*
X23481632Y-11868150D01*
X23494817Y-11852910D01*
X23494909Y-11872671D01*
G37*
%TD.AperFunction*%
%TA.AperFunction,EtchedComponent*%
G36*
X20959358Y-11637404D02*
G01*
X20963914Y-11643587D01*
X20970305Y-11652383D01*
X20977976Y-11663030D01*
X20982991Y-11670030D01*
X21036351Y-11740309D01*
X21093678Y-11807462D01*
X21154823Y-11871344D01*
X21219639Y-11931806D01*
X21287976Y-11988702D01*
X21356017Y-12039311D01*
X21392543Y-12065000D01*
X21366177Y-12064919D01*
X21353804Y-12064751D01*
X21345294Y-12064204D01*
X21339431Y-12063076D01*
X21335001Y-12061170D01*
X21332190Y-12059329D01*
X21262261Y-12006223D01*
X21196733Y-11951150D01*
X21135164Y-11893683D01*
X21077112Y-11833391D01*
X21022137Y-11769847D01*
X20982711Y-11719864D01*
X20955000Y-11683339D01*
X20955000Y-11657761D01*
X20955198Y-11647033D01*
X20955740Y-11639147D01*
X20956545Y-11634941D01*
X20957192Y-11634597D01*
X20959358Y-11637404D01*
G37*
%TD.AperFunction*%
%TA.AperFunction,EtchedComponent*%
G36*
X20977572Y-11909477D02*
G01*
X20988817Y-11921490D01*
X21002692Y-11935843D01*
X21018436Y-11951789D01*
X21035286Y-11968579D01*
X21052481Y-11985466D01*
X21069259Y-12001701D01*
X21084859Y-12016538D01*
X21098518Y-12029227D01*
X21109475Y-12039022D01*
X21109940Y-12039424D01*
X21119019Y-12047277D01*
X21126940Y-12054172D01*
X21132746Y-12059272D01*
X21135249Y-12061521D01*
X21136456Y-12063273D01*
X21134957Y-12064326D01*
X21129994Y-12064846D01*
X21120808Y-12064998D01*
X21119323Y-12065000D01*
X21099677Y-12065000D01*
X21073693Y-12041642D01*
X21064350Y-12033032D01*
X21052343Y-12021645D01*
X21038559Y-12008340D01*
X21023882Y-11993976D01*
X21009198Y-11979410D01*
X21001355Y-11971538D01*
X20955000Y-11924791D01*
X20955000Y-11904777D01*
X20955000Y-11884763D01*
X20977572Y-11909477D01*
G37*
%TD.AperFunction*%
%TA.AperFunction,EtchedComponent*%
G36*
X21319725Y-9525541D02*
G01*
X21344413Y-9526270D01*
X21329070Y-9537021D01*
X21322060Y-9542126D01*
X21312061Y-9549668D01*
X21300045Y-9558900D01*
X21286984Y-9569077D01*
X21275461Y-9578172D01*
X21214667Y-9629083D01*
X21155924Y-9683485D01*
X21099912Y-9740668D01*
X21047314Y-9799923D01*
X20998809Y-9860539D01*
X20979305Y-9886950D01*
X20971747Y-9897414D01*
X20965162Y-9906466D01*
X20960163Y-9913266D01*
X20957367Y-9916973D01*
X20957097Y-9917303D01*
X20956224Y-9915994D01*
X20955530Y-9910549D01*
X20955099Y-9901912D01*
X20955000Y-9894355D01*
X20955000Y-9868994D01*
X20973179Y-9844952D01*
X21026107Y-9778797D01*
X21083057Y-9714874D01*
X21143367Y-9653855D01*
X21206372Y-9596416D01*
X21266624Y-9546941D01*
X21295038Y-9524812D01*
X21319725Y-9525541D01*
G37*
%TD.AperFunction*%
%TA.AperFunction,EtchedComponent*%
G36*
X23495000Y-11484993D02*
G01*
X23495000Y-11515796D01*
X23474733Y-11549291D01*
X23429737Y-11618853D01*
X23380347Y-11686203D01*
X23326886Y-11751020D01*
X23269676Y-11812982D01*
X23209039Y-11871769D01*
X23145298Y-11927060D01*
X23078774Y-11978533D01*
X23009790Y-12025866D01*
X22975396Y-12047325D01*
X22946130Y-12065000D01*
X22916400Y-12064887D01*
X22886670Y-12064775D01*
X22896450Y-12059172D01*
X22946106Y-12030031D01*
X22991651Y-12001759D01*
X23033844Y-11973786D01*
X23073446Y-11945539D01*
X23111217Y-11916446D01*
X23147915Y-11885935D01*
X23184303Y-11853436D01*
X23221138Y-11818375D01*
X23236126Y-11803547D01*
X23288559Y-11748739D01*
X23336528Y-11693435D01*
X23380641Y-11636840D01*
X23421504Y-11578156D01*
X23459725Y-11516586D01*
X23474874Y-11490141D01*
X23495000Y-11454191D01*
X23495000Y-11484993D01*
G37*
%TD.AperFunction*%
%TA.AperFunction,EtchedComponent*%
G36*
X20972766Y-11778618D02*
G01*
X21013814Y-11828256D01*
X21058751Y-11878028D01*
X21106528Y-11926883D01*
X21156094Y-11973769D01*
X21206400Y-12017635D01*
X21233666Y-12039827D01*
X21265420Y-12065000D01*
X21242644Y-12065000D01*
X21231285Y-12064846D01*
X21223507Y-12064178D01*
X21217815Y-12062692D01*
X21212716Y-12060079D01*
X21209989Y-12058300D01*
X21196744Y-12048553D01*
X21180700Y-12035488D01*
X21162386Y-12019629D01*
X21142328Y-12001499D01*
X21121053Y-11981622D01*
X21099089Y-11960520D01*
X21076963Y-11938717D01*
X21055201Y-11916736D01*
X21034332Y-11895100D01*
X21014881Y-11874332D01*
X20997377Y-11854957D01*
X20982346Y-11837496D01*
X20970315Y-11822474D01*
X20964833Y-11814958D01*
X20959963Y-11807745D01*
X20957039Y-11802239D01*
X20955622Y-11796741D01*
X20955270Y-11789550D01*
X20955539Y-11779088D01*
X20956270Y-11757667D01*
X20972766Y-11778618D01*
G37*
%TD.AperFunction*%
%TA.AperFunction,EtchedComponent*%
G36*
X21451277Y-9525022D02*
G01*
X21479510Y-9525044D01*
X21458205Y-9538357D01*
X21390435Y-9583533D01*
X21324378Y-9633206D01*
X21260498Y-9686946D01*
X21199261Y-9744327D01*
X21141132Y-9804920D01*
X21086577Y-9868296D01*
X21052578Y-9911675D01*
X21038221Y-9931211D01*
X21022743Y-9953129D01*
X21007014Y-9976138D01*
X20991905Y-9998946D01*
X20978287Y-10020260D01*
X20967820Y-10037445D01*
X20962771Y-10045824D01*
X20958718Y-10052208D01*
X20956316Y-10055580D01*
X20955981Y-10055860D01*
X20955585Y-10053492D01*
X20955265Y-10047074D01*
X20955059Y-10037638D01*
X20955000Y-10028206D01*
X20955000Y-10000552D01*
X20980055Y-9962801D01*
X21030360Y-9891510D01*
X21084444Y-9823556D01*
X21142356Y-9758887D01*
X21204148Y-9697453D01*
X21269869Y-9639201D01*
X21339572Y-9584081D01*
X21389047Y-9548516D01*
X21423044Y-9525000D01*
X21451277Y-9525022D01*
G37*
%TD.AperFunction*%
%TA.AperFunction,EtchedComponent*%
G36*
X23493727Y-11605418D02*
G01*
X23494450Y-11610988D01*
X23494894Y-11620021D01*
X23495000Y-11628455D01*
X23495000Y-11655205D01*
X23469274Y-11690558D01*
X23414572Y-11761450D01*
X23356164Y-11828878D01*
X23294030Y-11892862D01*
X23228149Y-11953420D01*
X23158503Y-12010572D01*
X23110334Y-12046530D01*
X23084790Y-12064890D01*
X23058247Y-12064945D01*
X23047227Y-12064776D01*
X23039074Y-12064267D01*
X23034599Y-12063490D01*
X23034117Y-12062799D01*
X23037105Y-12060573D01*
X23043378Y-12056210D01*
X23051976Y-12050368D01*
X23060660Y-12044556D01*
X23120317Y-12002396D01*
X23179203Y-11955890D01*
X23236686Y-11905669D01*
X23292138Y-11852363D01*
X23344926Y-11796601D01*
X23394422Y-11739014D01*
X23439995Y-11680232D01*
X23474607Y-11630660D01*
X23481187Y-11620807D01*
X23486867Y-11612443D01*
X23490988Y-11606528D01*
X23492799Y-11604117D01*
X23493727Y-11605418D01*
G37*
%TD.AperFunction*%
%TA.AperFunction,EtchedComponent*%
G36*
X23303230Y-9525043D02*
G01*
X23334980Y-9553386D01*
X23351168Y-9568201D01*
X23369457Y-9585557D01*
X23388984Y-9604584D01*
X23408885Y-9624415D01*
X23428294Y-9644180D01*
X23446349Y-9663010D01*
X23462185Y-9680038D01*
X23472885Y-9692019D01*
X23495220Y-9717683D01*
X23494475Y-9736319D01*
X23493730Y-9754955D01*
X23482690Y-9743482D01*
X23477150Y-9737610D01*
X23469088Y-9728912D01*
X23459380Y-9718340D01*
X23448901Y-9706847D01*
X23442929Y-9700260D01*
X23429694Y-9685962D01*
X23413943Y-9669491D01*
X23396487Y-9651647D01*
X23378135Y-9633235D01*
X23359696Y-9615056D01*
X23341979Y-9597913D01*
X23325794Y-9582607D01*
X23311950Y-9569942D01*
X23307659Y-9566151D01*
X23299380Y-9558818D01*
X23292929Y-9552886D01*
X23289012Y-9549022D01*
X23288214Y-9547860D01*
X23287292Y-9546418D01*
X23283333Y-9542686D01*
X23278705Y-9538733D01*
X23272178Y-9533283D01*
X23267122Y-9528968D01*
X23265257Y-9527303D01*
X23266313Y-9526150D01*
X23271797Y-9525363D01*
X23281063Y-9525028D01*
X23283037Y-9525022D01*
X23303230Y-9525043D01*
G37*
%TD.AperFunction*%
%TA.AperFunction,EtchedComponent*%
G36*
X22904794Y-9525029D02*
G01*
X22911461Y-9525483D01*
X22917431Y-9526647D01*
X22923574Y-9528824D01*
X22930761Y-9532313D01*
X22939862Y-9537417D01*
X22951748Y-9544436D01*
X22965410Y-9552559D01*
X23035994Y-9597301D01*
X23104137Y-9646412D01*
X23169618Y-9699690D01*
X23232217Y-9756935D01*
X23291710Y-9817946D01*
X23347877Y-9882521D01*
X23393949Y-9941560D01*
X23405772Y-9957932D01*
X23419042Y-9977017D01*
X23433023Y-9997697D01*
X23446979Y-10018855D01*
X23460173Y-10039375D01*
X23471871Y-10058139D01*
X23481335Y-10074030D01*
X23481973Y-10075144D01*
X23495168Y-10098237D01*
X23494449Y-10127984D01*
X23493730Y-10157731D01*
X23477487Y-10127751D01*
X23436322Y-10056968D01*
X23390639Y-9988096D01*
X23340767Y-9921514D01*
X23287030Y-9857602D01*
X23229757Y-9796738D01*
X23169272Y-9739302D01*
X23105904Y-9685674D01*
X23078250Y-9664181D01*
X23033299Y-9631650D01*
X22985821Y-9600081D01*
X22937523Y-9570558D01*
X22890108Y-9544164D01*
X22886670Y-9542359D01*
X22853650Y-9525100D01*
X22885890Y-9525050D01*
X22896561Y-9524985D01*
X22904794Y-9525029D01*
G37*
%TD.AperFunction*%
%TA.AperFunction,EtchedComponent*%
G36*
X20969421Y-11515163D02*
G01*
X20979619Y-11532195D01*
X20992195Y-11552165D01*
X21006422Y-11573989D01*
X21021574Y-11596583D01*
X21036925Y-11618863D01*
X21051748Y-11639746D01*
X21064700Y-11657330D01*
X21112286Y-11716910D01*
X21163743Y-11774713D01*
X21218511Y-11830242D01*
X21276033Y-11883003D01*
X21335750Y-11932499D01*
X21397102Y-11978234D01*
X21459532Y-12019713D01*
X21500845Y-12044397D01*
X21512206Y-12050919D01*
X21521935Y-12056575D01*
X21529203Y-12060878D01*
X21533182Y-12063341D01*
X21533653Y-12063686D01*
X21531818Y-12064201D01*
X21525847Y-12064621D01*
X21516683Y-12064902D01*
X21505772Y-12065000D01*
X21476578Y-12065000D01*
X21447897Y-12047194D01*
X21400005Y-12016334D01*
X21355081Y-11984942D01*
X21312123Y-11952220D01*
X21270128Y-11917365D01*
X21228094Y-11879579D01*
X21185019Y-11838059D01*
X21180902Y-11833957D01*
X21140048Y-11791976D01*
X21102883Y-11751210D01*
X21068550Y-11710605D01*
X21036195Y-11669106D01*
X21004961Y-11625657D01*
X20973992Y-11579204D01*
X20973077Y-11577782D01*
X20954833Y-11549410D01*
X20955552Y-11520885D01*
X20956270Y-11492360D01*
X20969421Y-11515163D01*
G37*
%TD.AperFunction*%
%TA.AperFunction,EtchedComponent*%
G36*
X21208737Y-9535795D02*
G01*
X21203119Y-9540966D01*
X21194525Y-9548709D01*
X21183811Y-9558259D01*
X21171833Y-9568855D01*
X21160608Y-9578716D01*
X21142306Y-9595217D01*
X21121882Y-9614460D01*
X21100192Y-9635575D01*
X21078093Y-9657692D01*
X21056444Y-9679941D01*
X21036102Y-9701455D01*
X21017925Y-9721363D01*
X21003232Y-9738247D01*
X20993255Y-9750019D01*
X20983500Y-9761392D01*
X20974839Y-9771361D01*
X20968140Y-9778922D01*
X20965854Y-9781427D01*
X20955118Y-9792970D01*
X20955059Y-9772403D01*
X20955000Y-9751835D01*
X20970875Y-9733033D01*
X20979397Y-9722780D01*
X20988147Y-9711993D01*
X20995594Y-9702565D01*
X20997432Y-9700171D01*
X21003423Y-9692906D01*
X21012414Y-9682801D01*
X21023743Y-9670537D01*
X21036748Y-9656793D01*
X21050767Y-9642252D01*
X21065137Y-9627592D01*
X21079196Y-9613494D01*
X21092281Y-9600639D01*
X21103731Y-9589707D01*
X21112883Y-9581377D01*
X21114137Y-9580291D01*
X21124986Y-9571039D01*
X21137766Y-9560221D01*
X21150496Y-9549513D01*
X21156930Y-9544133D01*
X21179790Y-9525073D01*
X21199979Y-9525037D01*
X21220168Y-9525000D01*
X21208737Y-9535795D01*
G37*
%TD.AperFunction*%
%TA.AperFunction,EtchedComponent*%
G36*
X23494968Y-11312673D02*
G01*
X23495000Y-11351557D01*
X23479609Y-11384812D01*
X23448372Y-11447228D01*
X23412619Y-11509530D01*
X23372878Y-11571004D01*
X23329677Y-11630934D01*
X23283544Y-11688604D01*
X23235007Y-11743299D01*
X23184594Y-11794304D01*
X23161572Y-11815739D01*
X23104616Y-11865132D01*
X23047464Y-11910117D01*
X22989211Y-11951317D01*
X22928950Y-11989354D01*
X22865773Y-12024850D01*
X22830086Y-12043201D01*
X22786382Y-12065000D01*
X22748896Y-12064976D01*
X22711410Y-12064952D01*
X22745700Y-12050141D01*
X22821328Y-12014726D01*
X22895180Y-11974606D01*
X22967051Y-11929908D01*
X23036738Y-11880758D01*
X23097393Y-11832843D01*
X23111332Y-11820765D01*
X23127897Y-11805629D01*
X23146352Y-11788174D01*
X23165959Y-11769137D01*
X23185982Y-11749254D01*
X23205684Y-11729263D01*
X23224329Y-11709902D01*
X23241179Y-11691907D01*
X23255497Y-11676016D01*
X23263833Y-11666282D01*
X23300192Y-11620627D01*
X23335272Y-11572898D01*
X23368095Y-11524493D01*
X23397685Y-11476809D01*
X23404236Y-11465560D01*
X23413915Y-11448098D01*
X23424827Y-11427381D01*
X23436406Y-11404569D01*
X23448086Y-11380825D01*
X23459299Y-11357311D01*
X23469479Y-11335189D01*
X23478061Y-11315623D01*
X23482228Y-11305540D01*
X23494937Y-11273790D01*
X23494968Y-11312673D01*
G37*
%TD.AperFunction*%
%TA.AperFunction,EtchedComponent*%
G36*
X22775377Y-9537794D02*
G01*
X22794838Y-9546536D01*
X22817428Y-9557333D01*
X22841957Y-9569566D01*
X22867232Y-9582615D01*
X22892063Y-9595861D01*
X22915260Y-9608686D01*
X22935632Y-9620471D01*
X22942924Y-9624879D01*
X23012569Y-9670619D01*
X23079230Y-9720408D01*
X23142747Y-9774069D01*
X23202956Y-9831425D01*
X23259695Y-9892301D01*
X23312804Y-9956521D01*
X23362119Y-10023907D01*
X23407480Y-10094284D01*
X23448723Y-10167476D01*
X23457970Y-10185400D01*
X23468142Y-10205479D01*
X23476269Y-10221724D01*
X23482574Y-10234847D01*
X23487280Y-10245559D01*
X23490612Y-10254572D01*
X23492793Y-10262598D01*
X23494046Y-10270347D01*
X23494596Y-10278532D01*
X23494665Y-10287863D01*
X23494478Y-10299053D01*
X23494432Y-10301408D01*
X23493730Y-10338508D01*
X23478522Y-10300689D01*
X23468680Y-10277398D01*
X23456766Y-10251118D01*
X23443423Y-10223153D01*
X23429297Y-10194807D01*
X23415031Y-10167384D01*
X23401271Y-10142186D01*
X23393273Y-10128250D01*
X23358429Y-10071629D01*
X23322458Y-10018750D01*
X23284469Y-9968449D01*
X23243568Y-9919559D01*
X23198865Y-9870916D01*
X23186390Y-9858043D01*
X23126868Y-9800556D01*
X23065320Y-9747662D01*
X23001490Y-9699194D01*
X22935121Y-9654984D01*
X22865957Y-9614864D01*
X22793741Y-9578667D01*
X22718218Y-9546224D01*
X22698710Y-9538650D01*
X22663150Y-9525127D01*
X22704355Y-9525063D01*
X22745561Y-9525000D01*
X22775377Y-9537794D01*
G37*
%TD.AperFunction*%
%TA.AperFunction,EtchedComponent*%
G36*
X23494129Y-11059160D02*
G01*
X23493606Y-11136630D01*
X23481333Y-11176000D01*
X23454427Y-11254455D01*
X23423580Y-11329750D01*
X23388697Y-11402042D01*
X23349682Y-11471492D01*
X23306437Y-11538259D01*
X23258869Y-11602502D01*
X23206879Y-11664380D01*
X23152201Y-11722227D01*
X23091902Y-11779023D01*
X23028568Y-11831821D01*
X22962381Y-11880512D01*
X22893521Y-11924984D01*
X22822168Y-11965129D01*
X22748502Y-12000834D01*
X22672704Y-12031991D01*
X22611472Y-12053303D01*
X22575034Y-12065000D01*
X22514952Y-12064705D01*
X22498440Y-12064579D01*
X22484080Y-12064382D01*
X22472495Y-12064129D01*
X22464306Y-12063838D01*
X22460138Y-12063523D01*
X22459950Y-12063296D01*
X22541798Y-12043036D01*
X22620554Y-12018819D01*
X22696439Y-11990538D01*
X22769679Y-11958085D01*
X22840497Y-11921350D01*
X22909115Y-11880226D01*
X22975759Y-11834603D01*
X23040651Y-11784375D01*
X23047960Y-11778341D01*
X23061120Y-11766943D01*
X23076896Y-11752526D01*
X23094561Y-11735817D01*
X23113388Y-11717545D01*
X23132649Y-11698436D01*
X23151617Y-11679218D01*
X23169566Y-11660618D01*
X23185768Y-11643364D01*
X23199496Y-11628184D01*
X23208260Y-11617960D01*
X23252955Y-11561266D01*
X23293161Y-11504602D01*
X23329399Y-11447173D01*
X23362192Y-11388186D01*
X23371634Y-11369671D01*
X23404286Y-11299520D01*
X23432172Y-11229118D01*
X23455564Y-11157640D01*
X23474736Y-11084258D01*
X23488738Y-11015170D01*
X23494652Y-10981690D01*
X23494129Y-11059160D01*
G37*
%TD.AperFunction*%
%TA.AperFunction,EtchedComponent*%
G36*
X20967318Y-11353204D02*
G01*
X20974940Y-11369468D01*
X20984637Y-11388937D01*
X20995813Y-11410495D01*
X21007869Y-11433028D01*
X21020207Y-11455420D01*
X21032231Y-11476558D01*
X21043342Y-11495324D01*
X21044553Y-11497310D01*
X21090452Y-11567488D01*
X21140604Y-11634997D01*
X21194803Y-11699611D01*
X21252848Y-11761102D01*
X21314536Y-11819243D01*
X21379662Y-11873808D01*
X21385530Y-11878414D01*
X21399078Y-11888619D01*
X21416011Y-11900790D01*
X21435359Y-11914278D01*
X21456151Y-11928432D01*
X21477419Y-11942603D01*
X21498191Y-11956142D01*
X21517497Y-11968398D01*
X21534369Y-11978722D01*
X21541740Y-11983043D01*
X21557747Y-11991950D01*
X21576867Y-12002125D01*
X21597893Y-12012963D01*
X21619614Y-12023859D01*
X21640823Y-12034209D01*
X21660309Y-12043408D01*
X21676864Y-12050851D01*
X21680170Y-12052268D01*
X21690581Y-12056725D01*
X21699132Y-12060473D01*
X21704817Y-12063066D01*
X21706628Y-12064013D01*
X21704627Y-12064354D01*
X21698406Y-12064626D01*
X21688829Y-12064808D01*
X21676756Y-12064881D01*
X21671068Y-12064873D01*
X21634450Y-12064746D01*
X21593810Y-12044285D01*
X21530875Y-12010764D01*
X21471391Y-11975196D01*
X21414594Y-11937027D01*
X21359725Y-11895703D01*
X21306020Y-11850669D01*
X21252718Y-11801370D01*
X21231693Y-11780687D01*
X21179711Y-11726393D01*
X21132149Y-11671748D01*
X21088373Y-11615896D01*
X21047749Y-11557978D01*
X21009643Y-11497139D01*
X20973420Y-11432520D01*
X20971866Y-11429588D01*
X20954854Y-11397426D01*
X20955562Y-11362952D01*
X20956270Y-11328478D01*
X20967318Y-11353204D01*
G37*
%TD.AperFunction*%
%TA.AperFunction,EtchedComponent*%
G36*
X20958130Y-11117580D02*
G01*
X20959669Y-11122524D01*
X20962541Y-11131470D01*
X20966477Y-11143597D01*
X20971212Y-11158085D01*
X20976479Y-11174115D01*
X20979195Y-11182350D01*
X21007105Y-11258816D01*
X21039612Y-11333286D01*
X21076556Y-11405548D01*
X21117776Y-11475389D01*
X21163113Y-11542596D01*
X21212407Y-11606956D01*
X21265497Y-11668255D01*
X21322223Y-11726280D01*
X21382425Y-11780820D01*
X21445943Y-11831659D01*
X21492210Y-11864875D01*
X21526561Y-11887322D01*
X21564497Y-11910152D01*
X21604705Y-11932670D01*
X21645873Y-11954179D01*
X21686689Y-11973982D01*
X21725840Y-11991383D01*
X21746210Y-11999686D01*
X21795814Y-12017797D01*
X21849542Y-12034839D01*
X21906501Y-12050547D01*
X21959570Y-12063275D01*
X21958592Y-12063598D01*
X21953154Y-12063904D01*
X21943873Y-12064177D01*
X21931369Y-12064403D01*
X21916262Y-12064567D01*
X21903690Y-12064640D01*
X21842730Y-12064869D01*
X21802090Y-12051210D01*
X21727226Y-12023715D01*
X21655393Y-11992503D01*
X21586148Y-11957328D01*
X21519049Y-11917940D01*
X21453653Y-11874094D01*
X21389518Y-11825540D01*
X21369020Y-11808829D01*
X21355573Y-11797189D01*
X21339460Y-11782452D01*
X21321383Y-11765323D01*
X21302043Y-11746508D01*
X21282143Y-11726713D01*
X21262382Y-11706644D01*
X21243463Y-11687007D01*
X21226087Y-11668508D01*
X21210956Y-11651853D01*
X21198771Y-11637749D01*
X21197465Y-11636170D01*
X21145613Y-11569304D01*
X21098407Y-11500472D01*
X21055729Y-11429467D01*
X21017459Y-11356085D01*
X20983481Y-11280121D01*
X20966218Y-11236205D01*
X20955000Y-11206241D01*
X20955259Y-11157465D01*
X20955407Y-11140506D01*
X20955660Y-11128235D01*
X20956049Y-11120260D01*
X20956600Y-11116190D01*
X20957343Y-11115634D01*
X20958130Y-11117580D01*
G37*
%TD.AperFunction*%
%TA.AperFunction,EtchedComponent*%
G36*
X21600377Y-9525016D02*
G01*
X21631910Y-9525033D01*
X21592070Y-9546340D01*
X21524309Y-9584695D01*
X21459680Y-9625552D01*
X21398733Y-9668540D01*
X21342017Y-9713285D01*
X21329233Y-9724127D01*
X21319073Y-9732733D01*
X21310189Y-9740007D01*
X21303321Y-9745363D01*
X21299211Y-9748212D01*
X21298471Y-9748520D01*
X21295947Y-9750265D01*
X21290435Y-9755149D01*
X21282462Y-9762640D01*
X21272557Y-9772211D01*
X21261247Y-9783330D01*
X21249060Y-9795470D01*
X21236522Y-9808100D01*
X21224163Y-9820692D01*
X21212508Y-9832715D01*
X21202086Y-9843639D01*
X21193425Y-9852937D01*
X21187052Y-9860078D01*
X21185613Y-9861783D01*
X21151670Y-9903612D01*
X21121117Y-9942926D01*
X21093450Y-9980476D01*
X21068169Y-10017014D01*
X21044772Y-10053291D01*
X21022758Y-10090060D01*
X21001624Y-10128071D01*
X20980871Y-10168076D01*
X20979825Y-10170160D01*
X20955010Y-10219690D01*
X20955005Y-10185365D01*
X20955000Y-10151040D01*
X20974294Y-10115515D01*
X21017203Y-10041541D01*
X21063664Y-9971062D01*
X21086827Y-9939020D01*
X21095202Y-9927993D01*
X21105027Y-9915421D01*
X21115790Y-9901918D01*
X21126982Y-9888100D01*
X21138093Y-9874584D01*
X21148614Y-9861984D01*
X21158035Y-9850915D01*
X21165845Y-9841994D01*
X21171536Y-9835835D01*
X21174597Y-9833055D01*
X21174597Y-9833055D01*
X21177308Y-9830709D01*
X21182965Y-9825224D01*
X21191023Y-9817150D01*
X21200936Y-9807038D01*
X21212157Y-9795436D01*
X21218329Y-9788997D01*
X21242844Y-9763797D01*
X21265602Y-9741445D01*
X21287897Y-9720730D01*
X21311024Y-9700439D01*
X21329650Y-9684808D01*
X21364632Y-9657071D01*
X21402809Y-9628862D01*
X21442812Y-9601108D01*
X21483273Y-9574740D01*
X21522822Y-9550686D01*
X21549577Y-9535534D01*
X21568843Y-9525000D01*
X21600377Y-9525016D01*
G37*
%TD.AperFunction*%
%TA.AperFunction,EtchedComponent*%
G36*
X21783386Y-9525107D02*
G01*
X21824950Y-9525213D01*
X21789390Y-9538659D01*
X21712302Y-9570235D01*
X21638370Y-9605449D01*
X21567779Y-9644199D01*
X21500716Y-9686381D01*
X21437366Y-9731889D01*
X21421090Y-9744600D01*
X21409308Y-9753889D01*
X21397822Y-9762809D01*
X21387725Y-9770521D01*
X21380112Y-9776184D01*
X21378242Y-9777523D01*
X21370370Y-9783601D01*
X21359680Y-9792638D01*
X21346898Y-9803952D01*
X21332754Y-9816867D01*
X21317976Y-9830701D01*
X21303291Y-9844776D01*
X21289427Y-9858412D01*
X21277113Y-9870931D01*
X21269563Y-9878927D01*
X21254262Y-9895725D01*
X21239015Y-9912846D01*
X21224240Y-9929785D01*
X21210358Y-9946041D01*
X21197786Y-9961111D01*
X21186945Y-9974490D01*
X21178253Y-9985676D01*
X21172131Y-9994167D01*
X21168997Y-9999458D01*
X21168895Y-9999709D01*
X21166847Y-10003335D01*
X21162514Y-10010005D01*
X21156602Y-10018656D01*
X21151918Y-10025299D01*
X21108622Y-10090112D01*
X21069079Y-10157895D01*
X21033597Y-10228022D01*
X21002488Y-10299870D01*
X20976062Y-10372814D01*
X20970226Y-10391140D01*
X20966205Y-10404094D01*
X20962563Y-10415770D01*
X20959642Y-10425076D01*
X20957785Y-10430921D01*
X20957504Y-10431780D01*
X20956778Y-10431644D01*
X20956162Y-10426825D01*
X20955679Y-10417719D01*
X20955350Y-10404724D01*
X20955201Y-10389579D01*
X20955000Y-10341029D01*
X20964963Y-10314649D01*
X20996609Y-10237703D01*
X21032250Y-10163868D01*
X21071871Y-10093173D01*
X21091927Y-10060940D01*
X21103191Y-10043770D01*
X21115241Y-10026010D01*
X21127523Y-10008428D01*
X21139484Y-9991790D01*
X21150569Y-9976863D01*
X21160225Y-9964413D01*
X21167897Y-9955206D01*
X21170033Y-9952868D01*
X21175179Y-9947221D01*
X21182705Y-9938673D01*
X21191740Y-9928228D01*
X21201413Y-9916888D01*
X21205190Y-9912415D01*
X21220957Y-9894351D01*
X21239639Y-9874051D01*
X21260475Y-9852261D01*
X21282703Y-9829732D01*
X21305563Y-9807211D01*
X21328292Y-9785446D01*
X21350131Y-9765185D01*
X21370317Y-9747178D01*
X21388090Y-9732172D01*
X21390610Y-9730139D01*
X21453577Y-9682739D01*
X21520065Y-9638472D01*
X21589258Y-9597831D01*
X21660338Y-9561307D01*
X21705916Y-9540546D01*
X21741823Y-9525000D01*
X21783386Y-9525107D01*
G37*
%TD.AperFunction*%
%TA.AperFunction,EtchedComponent*%
G36*
X21887028Y-10449629D02*
G01*
X21900699Y-10449902D01*
X21911535Y-10450474D01*
X21920659Y-10451444D01*
X21929192Y-10452908D01*
X21938257Y-10454963D01*
X21941600Y-10455798D01*
X21971912Y-10465562D01*
X21998410Y-10478584D01*
X22021244Y-10495015D01*
X22040561Y-10515004D01*
X22056511Y-10538703D01*
X22069242Y-10566262D01*
X22077918Y-10593894D01*
X22080776Y-10607806D01*
X22083308Y-10625491D01*
X22085387Y-10645645D01*
X22086888Y-10666966D01*
X22087687Y-10688149D01*
X22087782Y-10696575D01*
X22087840Y-10718800D01*
X22020877Y-10718800D01*
X21953913Y-10718800D01*
X21952573Y-10674985D01*
X21951347Y-10650494D01*
X21949160Y-10630441D01*
X21945780Y-10614235D01*
X21940974Y-10601288D01*
X21934508Y-10591009D01*
X21926150Y-10582809D01*
X21915666Y-10576097D01*
X21912961Y-10574718D01*
X21905617Y-10571384D01*
X21899019Y-10569296D01*
X21891571Y-10568172D01*
X21881679Y-10567728D01*
X21873210Y-10567670D01*
X21854523Y-10568330D01*
X21839690Y-10570512D01*
X21827632Y-10574514D01*
X21817271Y-10580637D01*
X21812376Y-10584600D01*
X21805566Y-10591332D01*
X21800212Y-10598630D01*
X21796094Y-10607250D01*
X21792990Y-10617949D01*
X21790679Y-10631483D01*
X21788940Y-10648608D01*
X21787594Y-10669270D01*
X21786951Y-10684378D01*
X21786467Y-10702718D01*
X21786133Y-10723718D01*
X21785943Y-10746806D01*
X21785889Y-10771412D01*
X21785963Y-10796962D01*
X21786157Y-10822885D01*
X21786465Y-10848610D01*
X21786879Y-10873565D01*
X21787391Y-10897177D01*
X21787994Y-10918875D01*
X21788679Y-10938087D01*
X21789440Y-10954242D01*
X21790269Y-10966768D01*
X21791159Y-10975092D01*
X21791659Y-10977628D01*
X21798084Y-10995028D01*
X21806764Y-11008387D01*
X21818254Y-11018450D01*
X21824855Y-11022291D01*
X21831519Y-11025549D01*
X21837233Y-11027724D01*
X21843299Y-11029033D01*
X21851018Y-11029694D01*
X21861691Y-11029926D01*
X21870558Y-11029950D01*
X21883960Y-11029857D01*
X21893535Y-11029454D01*
X21900536Y-11028553D01*
X21906215Y-11026966D01*
X21911825Y-11024507D01*
X21913894Y-11023461D01*
X21923066Y-11017441D01*
X21931705Y-11009699D01*
X21934716Y-11006204D01*
X21939947Y-10998542D01*
X21944004Y-10990419D01*
X21947059Y-10981020D01*
X21949287Y-10969529D01*
X21950861Y-10955130D01*
X21951955Y-10937009D01*
X21952497Y-10922635D01*
X21953976Y-10876280D01*
X22020908Y-10876280D01*
X22087840Y-10876280D01*
X22087723Y-10890885D01*
X22087239Y-10912703D01*
X22086188Y-10934784D01*
X22084660Y-10956080D01*
X22082744Y-10975544D01*
X22080532Y-10992130D01*
X22078112Y-11004791D01*
X22077857Y-11005820D01*
X22067876Y-11036185D01*
X22054313Y-11063181D01*
X22037290Y-11086646D01*
X22016930Y-11106421D01*
X21993354Y-11122346D01*
X21986130Y-11126124D01*
X21969236Y-11133872D01*
X21953449Y-11139704D01*
X21937507Y-11143893D01*
X21920143Y-11146715D01*
X21900094Y-11148444D01*
X21879560Y-11149270D01*
X21864194Y-11149503D01*
X21849422Y-11149430D01*
X21836512Y-11149076D01*
X21826729Y-11148471D01*
X21823207Y-11148051D01*
X21790086Y-11140759D01*
X21760685Y-11130037D01*
X21734932Y-11115837D01*
X21712756Y-11098112D01*
X21694088Y-11076814D01*
X21678856Y-11051896D01*
X21678043Y-11050270D01*
X21672847Y-11038609D01*
X21667437Y-11024609D01*
X21662802Y-11010869D01*
X21661877Y-11007766D01*
X21655089Y-10984230D01*
X21654135Y-10812285D01*
X21653956Y-10777611D01*
X21653836Y-10747615D01*
X21653780Y-10721895D01*
X21653794Y-10700051D01*
X21653886Y-10681680D01*
X21654062Y-10666381D01*
X21654328Y-10653753D01*
X21654689Y-10643394D01*
X21655154Y-10634902D01*
X21655727Y-10627876D01*
X21656415Y-10621914D01*
X21657209Y-10616705D01*
X21664874Y-10583152D01*
X21675811Y-10553462D01*
X21690090Y-10527557D01*
X21707779Y-10505358D01*
X21728947Y-10486787D01*
X21753662Y-10471765D01*
X21781993Y-10460212D01*
X21797809Y-10455644D01*
X21807143Y-10453419D01*
X21815689Y-10451805D01*
X21824561Y-10450707D01*
X21834876Y-10450031D01*
X21847746Y-10449682D01*
X21864286Y-10449564D01*
X21869400Y-10449560D01*
X21887028Y-10449629D01*
G37*
%TD.AperFunction*%
%TA.AperFunction,EtchedComponent*%
G36*
X22529627Y-9534165D02*
G01*
X22606340Y-9554543D01*
X22681661Y-9579757D01*
X22755352Y-9609696D01*
X22827173Y-9644249D01*
X22896888Y-9683304D01*
X22964257Y-9726752D01*
X23004153Y-9755405D01*
X23059440Y-9799353D01*
X23113574Y-9847563D01*
X23165748Y-9899224D01*
X23215156Y-9953531D01*
X23260991Y-10009675D01*
X23270378Y-10022011D01*
X23314846Y-10085217D01*
X23356004Y-10151870D01*
X23393520Y-10221301D01*
X23427064Y-10292843D01*
X23456303Y-10365827D01*
X23480908Y-10439585D01*
X23486014Y-10457075D01*
X23495000Y-10488719D01*
X23494654Y-10562485D01*
X23494533Y-10580878D01*
X23494360Y-10597174D01*
X23494145Y-10610812D01*
X23493900Y-10621231D01*
X23493636Y-10627872D01*
X23493365Y-10630173D01*
X23493279Y-10629900D01*
X23478471Y-10551104D01*
X23460137Y-10475543D01*
X23438328Y-10403407D01*
X23413632Y-10336215D01*
X23405374Y-10316604D01*
X23395199Y-10293871D01*
X23383726Y-10269296D01*
X23371577Y-10244159D01*
X23359369Y-10219739D01*
X23347723Y-10197316D01*
X23337258Y-10178171D01*
X23336315Y-10176510D01*
X23294697Y-10108647D01*
X23248686Y-10043112D01*
X23198549Y-9980213D01*
X23144553Y-9920258D01*
X23086966Y-9863555D01*
X23026055Y-9810412D01*
X23000970Y-9790337D01*
X22985358Y-9778570D01*
X22966549Y-9765061D01*
X22945700Y-9750586D01*
X22923969Y-9735925D01*
X22902511Y-9721855D01*
X22882483Y-9709153D01*
X22865042Y-9698597D01*
X22861412Y-9696494D01*
X22790750Y-9658854D01*
X22718558Y-9626016D01*
X22645019Y-9597998D01*
X22570313Y-9574821D01*
X22494624Y-9556503D01*
X22418131Y-9543063D01*
X22341016Y-9534520D01*
X22263461Y-9530894D01*
X22185647Y-9532204D01*
X22107755Y-9538469D01*
X22029967Y-9549708D01*
X21952465Y-9565940D01*
X21875430Y-9587184D01*
X21863050Y-9591085D01*
X21799323Y-9613679D01*
X21735277Y-9640571D01*
X21671779Y-9671285D01*
X21609696Y-9705346D01*
X21549894Y-9742279D01*
X21493240Y-9781610D01*
X21441410Y-9822187D01*
X21432657Y-9829346D01*
X21425157Y-9835225D01*
X21419879Y-9839081D01*
X21418023Y-9840178D01*
X21414270Y-9842616D01*
X21407541Y-9848143D01*
X21398408Y-9856214D01*
X21387446Y-9866281D01*
X21375226Y-9877799D01*
X21362321Y-9890223D01*
X21349304Y-9903005D01*
X21336747Y-9915600D01*
X21325224Y-9927462D01*
X21315307Y-9938045D01*
X21314895Y-9938497D01*
X21297160Y-9958102D01*
X21282093Y-9975144D01*
X21268806Y-9990690D01*
X21256413Y-10005805D01*
X21244024Y-10021556D01*
X21230753Y-10039009D01*
X21226696Y-10044430D01*
X21217475Y-10056980D01*
X21207885Y-10070377D01*
X21198387Y-10083937D01*
X21189444Y-10096976D01*
X21181518Y-10108811D01*
X21175070Y-10118760D01*
X21170562Y-10126138D01*
X21168457Y-10130263D01*
X21168360Y-10130714D01*
X21167155Y-10133392D01*
X21163814Y-10139720D01*
X21158746Y-10148950D01*
X21152360Y-10160337D01*
X21146283Y-10171009D01*
X21109769Y-10239677D01*
X21077917Y-10310158D01*
X21050691Y-10382565D01*
X21028051Y-10457017D01*
X21009960Y-10533629D01*
X20996380Y-10612518D01*
X20992738Y-10640250D01*
X20991105Y-10654421D01*
X20989811Y-10667554D01*
X20988818Y-10680524D01*
X20988089Y-10694205D01*
X20987587Y-10709473D01*
X20987274Y-10727200D01*
X20987114Y-10748262D01*
X20987069Y-10773410D01*
X20987114Y-10798660D01*
X20987275Y-10819705D01*
X20987588Y-10837420D01*
X20988091Y-10852678D01*
X20988821Y-10866354D01*
X20989816Y-10879323D01*
X20991112Y-10892459D01*
X20992738Y-10906570D01*
X21004947Y-10987299D01*
X21021772Y-11065925D01*
X21043239Y-11142515D01*
X21069374Y-11217141D01*
X21100200Y-11289872D01*
X21135744Y-11360777D01*
X21176031Y-11429927D01*
X21190330Y-11452310D01*
X21233998Y-11514886D01*
X21281586Y-11575011D01*
X21332640Y-11632198D01*
X21386705Y-11685961D01*
X21443325Y-11735810D01*
X21487130Y-11770289D01*
X21552032Y-11815919D01*
X21618424Y-11856747D01*
X21686447Y-11892827D01*
X21756244Y-11924214D01*
X21827956Y-11950965D01*
X21901726Y-11973133D01*
X21977693Y-11990774D01*
X22056002Y-12003944D01*
X22103080Y-12009609D01*
X22119772Y-12010917D01*
X22140518Y-12011884D01*
X22164307Y-12012515D01*
X22190125Y-12012818D01*
X22216958Y-12012798D01*
X22243794Y-12012461D01*
X22269620Y-12011813D01*
X22293422Y-12010860D01*
X22314188Y-12009608D01*
X22329140Y-12008265D01*
X22409327Y-11996923D01*
X22487674Y-11980848D01*
X22564160Y-11960046D01*
X22638767Y-11934526D01*
X22711477Y-11904296D01*
X22782271Y-11869363D01*
X22851130Y-11829735D01*
X22918036Y-11785421D01*
X22982969Y-11736427D01*
X22988649Y-11731843D01*
X23003611Y-11719169D01*
X23021062Y-11703500D01*
X23040265Y-11685571D01*
X23060484Y-11666116D01*
X23080980Y-11645867D01*
X23101016Y-11625561D01*
X23119855Y-11605929D01*
X23136760Y-11587706D01*
X23150994Y-11571627D01*
X23157915Y-11563350D01*
X23206768Y-11499388D01*
X23250888Y-11433701D01*
X23290252Y-11366353D01*
X23324836Y-11297412D01*
X23354616Y-11226942D01*
X23379569Y-11155009D01*
X23399670Y-11081678D01*
X23414896Y-11007016D01*
X23425224Y-10931087D01*
X23430629Y-10853958D01*
X23431500Y-10807700D01*
X23428983Y-10730449D01*
X23421480Y-10653866D01*
X23409062Y-10578139D01*
X23391801Y-10503459D01*
X23369767Y-10430016D01*
X23343033Y-10358000D01*
X23311669Y-10287601D01*
X23275748Y-10219009D01*
X23235340Y-10152414D01*
X23190516Y-10088006D01*
X23141349Y-10025975D01*
X23135155Y-10018693D01*
X23121375Y-10003169D01*
X23104779Y-9985358D01*
X23086305Y-9966200D01*
X23066892Y-9946637D01*
X23047482Y-9927608D01*
X23029013Y-9910053D01*
X23012426Y-9894914D01*
X23004780Y-9888242D01*
X22944214Y-9839722D01*
X22881349Y-9795624D01*
X22816389Y-9755991D01*
X22749535Y-9720863D01*
X22680991Y-9690280D01*
X22610959Y-9664283D01*
X22539641Y-9642913D01*
X22467241Y-9626211D01*
X22393960Y-9614217D01*
X22320001Y-9606973D01*
X22245568Y-9604518D01*
X22170862Y-9606893D01*
X22096086Y-9614140D01*
X22021443Y-9626299D01*
X21947135Y-9643411D01*
X21882100Y-9662625D01*
X21814241Y-9687167D01*
X21747332Y-9716047D01*
X21681963Y-9748922D01*
X21618727Y-9785447D01*
X21558215Y-9825278D01*
X21501017Y-9868072D01*
X21447726Y-9913484D01*
X21442275Y-9918488D01*
X21433974Y-9925950D01*
X21426912Y-9931901D01*
X21421984Y-9935609D01*
X21420256Y-9936480D01*
X21417773Y-9938246D01*
X21412438Y-9943153D01*
X21404849Y-9950614D01*
X21395604Y-9960040D01*
X21385971Y-9970135D01*
X21346879Y-10012988D01*
X21311821Y-10054454D01*
X21280242Y-10095323D01*
X21251587Y-10136388D01*
X21225302Y-10178442D01*
X21200832Y-10222275D01*
X21179179Y-10265410D01*
X21152014Y-10325384D01*
X21128821Y-10383602D01*
X21109306Y-10441071D01*
X21093176Y-10498794D01*
X21080138Y-10557778D01*
X21069898Y-10619027D01*
X21065058Y-10656570D01*
X21063077Y-10678359D01*
X21061640Y-10704081D01*
X21060741Y-10732621D01*
X21060374Y-10762861D01*
X21060536Y-10793685D01*
X21061221Y-10823977D01*
X21062423Y-10852620D01*
X21064137Y-10878498D01*
X21066191Y-10899140D01*
X21077238Y-10972912D01*
X21092158Y-11044021D01*
X21111166Y-11113331D01*
X21134479Y-11181708D01*
X21141543Y-11200130D01*
X21148806Y-11217602D01*
X21158109Y-11238386D01*
X21168921Y-11261415D01*
X21180708Y-11285619D01*
X21192941Y-11309931D01*
X21205088Y-11333282D01*
X21216616Y-11354603D01*
X21226995Y-11372825D01*
X21229718Y-11377384D01*
X21271317Y-11441345D01*
X21316828Y-11502349D01*
X21366019Y-11560195D01*
X21418658Y-11614681D01*
X21474514Y-11665605D01*
X21533356Y-11712765D01*
X21594951Y-11755959D01*
X21659069Y-11794986D01*
X21725478Y-11829644D01*
X21773197Y-11851194D01*
X21843472Y-11878228D01*
X21914904Y-11900367D01*
X21987283Y-11917610D01*
X22060399Y-11929955D01*
X22134042Y-11937400D01*
X22208002Y-11939942D01*
X22282069Y-11937581D01*
X22356032Y-11930314D01*
X22429683Y-11918139D01*
X22502811Y-11901055D01*
X22575206Y-11879060D01*
X22630130Y-11858850D01*
X22699132Y-11828831D01*
X22765883Y-11794473D01*
X22830166Y-11755981D01*
X22891763Y-11713563D01*
X22950458Y-11667425D01*
X23006034Y-11617775D01*
X23058273Y-11564819D01*
X23106958Y-11508764D01*
X23151874Y-11449817D01*
X23192801Y-11388184D01*
X23229524Y-11324073D01*
X23261826Y-11257691D01*
X23262501Y-11256169D01*
X23290510Y-11186835D01*
X23313624Y-11116453D01*
X23331868Y-11045236D01*
X23345271Y-10973397D01*
X23353856Y-10901151D01*
X23357651Y-10828710D01*
X23356682Y-10756287D01*
X23350974Y-10684097D01*
X23340554Y-10612352D01*
X23325448Y-10541266D01*
X23305682Y-10471052D01*
X23281281Y-10401924D01*
X23252273Y-10334094D01*
X23218683Y-10267777D01*
X23180537Y-10203186D01*
X23137861Y-10140533D01*
X23123873Y-10121745D01*
X23097218Y-10088276D01*
X23067591Y-10053917D01*
X23036126Y-10019872D01*
X23003954Y-9987343D01*
X22972208Y-9957533D01*
X22955250Y-9942656D01*
X22896277Y-9895617D01*
X22834876Y-9853030D01*
X22771129Y-9814930D01*
X22705121Y-9781352D01*
X22636933Y-9752333D01*
X22566649Y-9727908D01*
X22494353Y-9708113D01*
X22420128Y-9692984D01*
X22351492Y-9683358D01*
X22329489Y-9681443D01*
X22303682Y-9680067D01*
X22275316Y-9679230D01*
X22245637Y-9678932D01*
X22215892Y-9679173D01*
X22187328Y-9679953D01*
X22161190Y-9681272D01*
X22138725Y-9683130D01*
X22136608Y-9683358D01*
X22060064Y-9694328D01*
X21985261Y-9710030D01*
X21912308Y-9730418D01*
X21841313Y-9755445D01*
X21772386Y-9785063D01*
X21705635Y-9819226D01*
X21641169Y-9857887D01*
X21579095Y-9900998D01*
X21519524Y-9948513D01*
X21515070Y-9952330D01*
X21501565Y-9964308D01*
X21486052Y-9978642D01*
X21469257Y-9994609D01*
X21451909Y-10011487D01*
X21434737Y-10028552D01*
X21418466Y-10045081D01*
X21403827Y-10060352D01*
X21391546Y-10073641D01*
X21382703Y-10083800D01*
X21350280Y-10124535D01*
X21321529Y-10164299D01*
X21295592Y-10204425D01*
X21271615Y-10246248D01*
X21248742Y-10291101D01*
X21245835Y-10297160D01*
X21228773Y-10333834D01*
X21214098Y-10367419D01*
X21201386Y-10399059D01*
X21190219Y-10429898D01*
X21180173Y-10461080D01*
X21170828Y-10493750D01*
X21164472Y-10518140D01*
X21149356Y-10588456D01*
X21139197Y-10659279D01*
X21133926Y-10730373D01*
X21133477Y-10801497D01*
X21137780Y-10872414D01*
X21146769Y-10942887D01*
X21160374Y-11012675D01*
X21178529Y-11081541D01*
X21201165Y-11149248D01*
X21228214Y-11215555D01*
X21259609Y-11280226D01*
X21295280Y-11343022D01*
X21335161Y-11403704D01*
X21379183Y-11462034D01*
X21427279Y-11517775D01*
X21459013Y-11550827D01*
X21513203Y-11601559D01*
X21569918Y-11648004D01*
X21628955Y-11690114D01*
X21690109Y-11727840D01*
X21753174Y-11761134D01*
X21817947Y-11789948D01*
X21884222Y-11814233D01*
X21951796Y-11833941D01*
X22020463Y-11849023D01*
X22090019Y-11859431D01*
X22160260Y-11865116D01*
X22230980Y-11866031D01*
X22301976Y-11862127D01*
X22373042Y-11853354D01*
X22443974Y-11839666D01*
X22514568Y-11821013D01*
X22551223Y-11809285D01*
X22620543Y-11783096D01*
X22687694Y-11752386D01*
X22752461Y-11717318D01*
X22814633Y-11678056D01*
X22873997Y-11634764D01*
X22930342Y-11587606D01*
X22983453Y-11536745D01*
X23033119Y-11482346D01*
X23079127Y-11424571D01*
X23112741Y-11376660D01*
X23149878Y-11316022D01*
X23182851Y-11252677D01*
X23211481Y-11187069D01*
X23235589Y-11119641D01*
X23254997Y-11050834D01*
X23267385Y-10993120D01*
X23271849Y-10967823D01*
X23275399Y-10944912D01*
X23278128Y-10923258D01*
X23280131Y-10901731D01*
X23281502Y-10879203D01*
X23282334Y-10854544D01*
X23282720Y-10826625D01*
X23282778Y-10807700D01*
X23282616Y-10777342D01*
X23282069Y-10750921D01*
X23281043Y-10727303D01*
X23279443Y-10705355D01*
X23277176Y-10683942D01*
X23274148Y-10661931D01*
X23270265Y-10638186D01*
X23267420Y-10622280D01*
X23251936Y-10551501D01*
X23231834Y-10482422D01*
X23207282Y-10415239D01*
X23178449Y-10350147D01*
X23145505Y-10287341D01*
X23108618Y-10227015D01*
X23067958Y-10169366D01*
X23023694Y-10114589D01*
X22975994Y-10062878D01*
X22925027Y-10014429D01*
X22870964Y-9969437D01*
X22813972Y-9928098D01*
X22754221Y-9890606D01*
X22691880Y-9857156D01*
X22627118Y-9827945D01*
X22560104Y-9803166D01*
X22557211Y-9802215D01*
X22498096Y-9784636D01*
X22440167Y-9771096D01*
X22382239Y-9761409D01*
X22323122Y-9755388D01*
X22261629Y-9752845D01*
X22242780Y-9752732D01*
X22176065Y-9754777D01*
X22111673Y-9760807D01*
X22048577Y-9770990D01*
X21985747Y-9785493D01*
X21922157Y-9804484D01*
X21919276Y-9805442D01*
X21850564Y-9831022D01*
X21784267Y-9861066D01*
X21720427Y-9895544D01*
X21659087Y-9934428D01*
X21600288Y-9977690D01*
X21544074Y-10025300D01*
X21490486Y-10077230D01*
X21446478Y-10125388D01*
X21428021Y-10146997D01*
X21411889Y-10166567D01*
X21397585Y-10184860D01*
X21384611Y-10202640D01*
X21372471Y-10220667D01*
X21360668Y-10239706D01*
X21348704Y-10260518D01*
X21336082Y-10283865D01*
X21322307Y-10310511D01*
X21310482Y-10333990D01*
X21281365Y-10397907D01*
X21257009Y-10463415D01*
X21237441Y-10530264D01*
X21222688Y-10598205D01*
X21212778Y-10666987D01*
X21207737Y-10736362D01*
X21207591Y-10806078D01*
X21212368Y-10875886D01*
X21222095Y-10945537D01*
X21236798Y-11014780D01*
X21237155Y-11016205D01*
X21257105Y-11085808D01*
X21281426Y-11152931D01*
X21310224Y-11217794D01*
X21343606Y-11280619D01*
X21381676Y-11341628D01*
X21414692Y-11388095D01*
X21459342Y-11443610D01*
X21507172Y-11495395D01*
X21557961Y-11543357D01*
X21611489Y-11587400D01*
X21667535Y-11627432D01*
X21725877Y-11663359D01*
X21786295Y-11695087D01*
X21848568Y-11722521D01*
X21912475Y-11745569D01*
X21977795Y-11764137D01*
X22044307Y-11778130D01*
X22111791Y-11787454D01*
X22180025Y-11792017D01*
X22248788Y-11791724D01*
X22317860Y-11786482D01*
X22344879Y-11783069D01*
X22414994Y-11770660D01*
X22483874Y-11753362D01*
X22551331Y-11731256D01*
X22617176Y-11704422D01*
X22681221Y-11672943D01*
X22743280Y-11636900D01*
X22803163Y-11596373D01*
X22838410Y-11569591D01*
X22866000Y-11546440D01*
X22895041Y-11519746D01*
X22924629Y-11490467D01*
X22953859Y-11459561D01*
X22981826Y-11427986D01*
X23007627Y-11396699D01*
X23030356Y-11366660D01*
X23031347Y-11365276D01*
X23069333Y-11307730D01*
X23103033Y-11247565D01*
X23132359Y-11185029D01*
X23157221Y-11120367D01*
X23177529Y-11053825D01*
X23193194Y-10985650D01*
X23204126Y-10916087D01*
X23207856Y-10880090D01*
X23208896Y-10867247D01*
X23209744Y-10855428D01*
X23210307Y-10846024D01*
X23210494Y-10840770D01*
X23210520Y-10831930D01*
X23186693Y-10855658D01*
X23162867Y-10879386D01*
X23161104Y-10900058D01*
X23156340Y-10939954D01*
X23148763Y-10982607D01*
X23138695Y-11026780D01*
X23126460Y-11071232D01*
X23112380Y-11114727D01*
X23096778Y-11156024D01*
X23090528Y-11170861D01*
X23060893Y-11232743D01*
X23026990Y-11292045D01*
X22989032Y-11348580D01*
X22947228Y-11402165D01*
X22901791Y-11452613D01*
X22852933Y-11499739D01*
X22800865Y-11543359D01*
X22745798Y-11583288D01*
X22687944Y-11619340D01*
X22627515Y-11651330D01*
X22564723Y-11679074D01*
X22499778Y-11702385D01*
X22473920Y-11710233D01*
X22453218Y-11715881D01*
X22430939Y-11721401D01*
X22407956Y-11726623D01*
X22385142Y-11731377D01*
X22363369Y-11735493D01*
X22343511Y-11738800D01*
X22326439Y-11741128D01*
X22313029Y-11742308D01*
X22308837Y-11742420D01*
X22304469Y-11743009D01*
X22299793Y-11745183D01*
X22293925Y-11749553D01*
X22285978Y-11756729D01*
X22280588Y-11761910D01*
X22260560Y-11781401D01*
X22260560Y-11764450D01*
X22260560Y-11747500D01*
X22211665Y-11747448D01*
X22142395Y-11744890D01*
X22074209Y-11737427D01*
X22007286Y-11725156D01*
X21941806Y-11708170D01*
X21877952Y-11686565D01*
X21815902Y-11660436D01*
X21755837Y-11629877D01*
X21697938Y-11594984D01*
X21642385Y-11555852D01*
X21589358Y-11512575D01*
X21539038Y-11465249D01*
X21491606Y-11413968D01*
X21447241Y-11358828D01*
X21430927Y-11336465D01*
X21396290Y-11283715D01*
X21364552Y-11227374D01*
X21336096Y-11168265D01*
X21311303Y-11107208D01*
X21290556Y-11045025D01*
X21283074Y-11018520D01*
X21268527Y-10954438D01*
X21258541Y-10888700D01*
X21253121Y-10821896D01*
X21252595Y-10780197D01*
X21280847Y-10780197D01*
X21283735Y-10846854D01*
X21291425Y-10913201D01*
X21303878Y-10978991D01*
X21321055Y-11043976D01*
X21342919Y-11107911D01*
X21369429Y-11170547D01*
X21400548Y-11231638D01*
X21436238Y-11290937D01*
X21440509Y-11297443D01*
X21480573Y-11353508D01*
X21524127Y-11406098D01*
X21570949Y-11455084D01*
X21620820Y-11500336D01*
X21673519Y-11541723D01*
X21728826Y-11579115D01*
X21786520Y-11612381D01*
X21846382Y-11641391D01*
X21908190Y-11666015D01*
X21971726Y-11686123D01*
X22036768Y-11701583D01*
X22103096Y-11712266D01*
X22149146Y-11716759D01*
X22165791Y-11717766D01*
X22183476Y-11718510D01*
X22201169Y-11718978D01*
X22217841Y-11719160D01*
X22232459Y-11719043D01*
X22243994Y-11718614D01*
X22251035Y-11717930D01*
X22260560Y-11716355D01*
X22260560Y-11708806D01*
X22337090Y-11708806D01*
X22338266Y-11709400D01*
X22342779Y-11708964D01*
X22351056Y-11707780D01*
X22361865Y-11706037D01*
X22372511Y-11704186D01*
X22437461Y-11689968D01*
X22501562Y-11670900D01*
X22564392Y-11647193D01*
X22625529Y-11619057D01*
X22684550Y-11586704D01*
X22741032Y-11550345D01*
X22794554Y-11510191D01*
X22840950Y-11469955D01*
X22890868Y-11420286D01*
X22936238Y-11368360D01*
X22977056Y-11314182D01*
X23013320Y-11257760D01*
X23045026Y-11199097D01*
X23072171Y-11138202D01*
X23094751Y-11075079D01*
X23112763Y-11009735D01*
X23122807Y-10961836D01*
X23126022Y-10944306D01*
X23128167Y-10931508D01*
X23128982Y-10923160D01*
X23128209Y-10918981D01*
X23125588Y-10918688D01*
X23120861Y-10921998D01*
X23113768Y-10928630D01*
X23104052Y-10938302D01*
X23102570Y-10939780D01*
X23093166Y-10949405D01*
X23085215Y-10958025D01*
X23079360Y-10964906D01*
X23076240Y-10969315D01*
X23075900Y-10970278D01*
X23075211Y-10975470D01*
X23073308Y-10984582D01*
X23070437Y-10996671D01*
X23066845Y-11010792D01*
X23062777Y-11026000D01*
X23058481Y-11041351D01*
X23054203Y-11055900D01*
X23050420Y-11067992D01*
X23027833Y-11129298D01*
X23000749Y-11188429D01*
X22969351Y-11245190D01*
X22933821Y-11299380D01*
X22894343Y-11350803D01*
X22851098Y-11399260D01*
X22804270Y-11444554D01*
X22754042Y-11486486D01*
X22700596Y-11524859D01*
X22644115Y-11559475D01*
X22584782Y-11590135D01*
X22556470Y-11602904D01*
X22534672Y-11611751D01*
X22509774Y-11620948D01*
X22483377Y-11629966D01*
X22457082Y-11638273D01*
X22432490Y-11645339D01*
X22415170Y-11649729D01*
X22385631Y-11656630D01*
X22359336Y-11683015D01*
X22348861Y-11693707D01*
X22341852Y-11701332D01*
X22338023Y-11706245D01*
X22337090Y-11708806D01*
X22260560Y-11708806D01*
X22260560Y-11695098D01*
X22260560Y-11673840D01*
X22215475Y-11673838D01*
X22148246Y-11671348D01*
X22082078Y-11663919D01*
X22017132Y-11651603D01*
X21953573Y-11634453D01*
X21891562Y-11612521D01*
X21831261Y-11585859D01*
X21772835Y-11554519D01*
X21716444Y-11518555D01*
X21703030Y-11509096D01*
X21650163Y-11467978D01*
X21600584Y-11423009D01*
X21554390Y-11374288D01*
X21511679Y-11321916D01*
X21481298Y-11279275D01*
X21467968Y-11259115D01*
X21456658Y-11241237D01*
X21446585Y-11224266D01*
X21436963Y-11206828D01*
X21427008Y-11187548D01*
X21415935Y-11165053D01*
X21415087Y-11163300D01*
X21391680Y-11110977D01*
X21372019Y-11058360D01*
X21355803Y-11004438D01*
X21342731Y-10948202D01*
X21332501Y-10888643D01*
X21331824Y-10883900D01*
X21330069Y-10867658D01*
X21328712Y-10847379D01*
X21327753Y-10824092D01*
X21327194Y-10798825D01*
X21327064Y-10777569D01*
X21354638Y-10777569D01*
X21357270Y-10840940D01*
X21364614Y-10903992D01*
X21376633Y-10966485D01*
X21393285Y-11028175D01*
X21414530Y-11088821D01*
X21440330Y-11148181D01*
X21470644Y-11206014D01*
X21505432Y-11262077D01*
X21544655Y-11316130D01*
X21556246Y-11330649D01*
X21570067Y-11346811D01*
X21586782Y-11365071D01*
X21605412Y-11384455D01*
X21624977Y-11403990D01*
X21644499Y-11422702D01*
X21662999Y-11439620D01*
X21679498Y-11453769D01*
X21682710Y-11456372D01*
X21733420Y-11493997D01*
X21786814Y-11527968D01*
X21842307Y-11557991D01*
X21899313Y-11583770D01*
X21957247Y-11605011D01*
X22005661Y-11618994D01*
X22035187Y-11625777D01*
X22066562Y-11631733D01*
X22098853Y-11636765D01*
X22131128Y-11640774D01*
X22162454Y-11643661D01*
X22191898Y-11645328D01*
X22218526Y-11645676D01*
X22241408Y-11644607D01*
X22244947Y-11644268D01*
X22260560Y-11642636D01*
X22260552Y-11620773D01*
X22260550Y-11612742D01*
X22433125Y-11612742D01*
X22435407Y-11613832D01*
X22441701Y-11612714D01*
X22452227Y-11609561D01*
X22467206Y-11604548D01*
X22481196Y-11599775D01*
X22543118Y-11576079D01*
X22602532Y-11548122D01*
X22659250Y-11516084D01*
X22713086Y-11480143D01*
X22763854Y-11440479D01*
X22811369Y-11397272D01*
X22855443Y-11350701D01*
X22895891Y-11300946D01*
X22932526Y-11248185D01*
X22965162Y-11192598D01*
X22993614Y-11134366D01*
X23012606Y-11087691D01*
X23016517Y-11076760D01*
X23020733Y-11064242D01*
X23024981Y-11051049D01*
X23028986Y-11038089D01*
X23032472Y-11026273D01*
X23035165Y-11016510D01*
X23036789Y-11009712D01*
X23037070Y-11006787D01*
X23037054Y-11006768D01*
X23035112Y-11008228D01*
X23030191Y-11012758D01*
X23022871Y-11019799D01*
X23013730Y-11028795D01*
X23004237Y-11038293D01*
X22972193Y-11070590D01*
X22960711Y-11098882D01*
X22935201Y-11155049D01*
X22905252Y-11208994D01*
X22871102Y-11260482D01*
X22832990Y-11309276D01*
X22791152Y-11355141D01*
X22745826Y-11397843D01*
X22697249Y-11437145D01*
X22645660Y-11472811D01*
X22591294Y-11504607D01*
X22534391Y-11532297D01*
X22515600Y-11540287D01*
X22507239Y-11543810D01*
X22500465Y-11547060D01*
X22494433Y-11550678D01*
X22488300Y-11555307D01*
X22481222Y-11561590D01*
X22472356Y-11570168D01*
X22460857Y-11581684D01*
X22459720Y-11582831D01*
X22448153Y-11594489D01*
X22439719Y-11603244D01*
X22434636Y-11609271D01*
X22433125Y-11612742D01*
X22260550Y-11612742D01*
X22260545Y-11598910D01*
X22205307Y-11598810D01*
X22157052Y-11597525D01*
X22111797Y-11593715D01*
X22068021Y-11587168D01*
X22024202Y-11577677D01*
X21995010Y-11569838D01*
X21934373Y-11549805D01*
X21875891Y-11525240D01*
X21819752Y-11496293D01*
X21766142Y-11463114D01*
X21715247Y-11425854D01*
X21667254Y-11384662D01*
X21622350Y-11339691D01*
X21580721Y-11291089D01*
X21542554Y-11239007D01*
X21508035Y-11183596D01*
X21501620Y-11172190D01*
X21473363Y-11115829D01*
X21449412Y-11056809D01*
X21429791Y-10995206D01*
X21414527Y-10931098D01*
X21406592Y-10885735D01*
X21404360Y-10866882D01*
X21402644Y-10844162D01*
X21401448Y-10818703D01*
X21400779Y-10791631D01*
X21400645Y-10764076D01*
X21400868Y-10749308D01*
X21428846Y-10749308D01*
X21429073Y-10810237D01*
X21434232Y-10870968D01*
X21436476Y-10887254D01*
X21448362Y-10949894D01*
X21465025Y-11011050D01*
X21486317Y-11070473D01*
X21512088Y-11127914D01*
X21542189Y-11183126D01*
X21576470Y-11235857D01*
X21614782Y-11285861D01*
X21656976Y-11332887D01*
X21702901Y-11376687D01*
X21752408Y-11417012D01*
X21756402Y-11419994D01*
X21807181Y-11454533D01*
X21860645Y-11484907D01*
X21916392Y-11510965D01*
X21974019Y-11532558D01*
X22033124Y-11549537D01*
X22093303Y-11561752D01*
X22154155Y-11569055D01*
X22159091Y-11569426D01*
X22181111Y-11570853D01*
X22199305Y-11571649D01*
X22214885Y-11571833D01*
X22229065Y-11571421D01*
X22241127Y-11570597D01*
X22260560Y-11568954D01*
X22260557Y-11547102D01*
X22260553Y-11525250D01*
X22207852Y-11525178D01*
X22179035Y-11524820D01*
X22153671Y-11523732D01*
X22130168Y-11521764D01*
X22106931Y-11518770D01*
X22082368Y-11514600D01*
X22071330Y-11512474D01*
X22013355Y-11498428D01*
X21956983Y-11479666D01*
X21902455Y-11456372D01*
X21850014Y-11428723D01*
X21799903Y-11396902D01*
X21752363Y-11361087D01*
X21707637Y-11321461D01*
X21665968Y-11278202D01*
X21627598Y-11231492D01*
X21592769Y-11181511D01*
X21566073Y-11136486D01*
X21538696Y-11081383D01*
X21516070Y-11024807D01*
X21498206Y-10967036D01*
X21485119Y-10908350D01*
X21476821Y-10849026D01*
X21473366Y-10790019D01*
X21502472Y-10790019D01*
X21505897Y-10846838D01*
X21513927Y-10903452D01*
X21526589Y-10959603D01*
X21543907Y-11015029D01*
X21565908Y-11069470D01*
X21592619Y-11122666D01*
X21624066Y-11174355D01*
X21624315Y-11174730D01*
X21640215Y-11198055D01*
X21654886Y-11218237D01*
X21669414Y-11236599D01*
X21684884Y-11254466D01*
X21702382Y-11273160D01*
X21718134Y-11289166D01*
X21738744Y-11309327D01*
X21757488Y-11326573D01*
X21775660Y-11341967D01*
X21794551Y-11356574D01*
X21815454Y-11371459D01*
X21830030Y-11381320D01*
X21879316Y-11411147D01*
X21931297Y-11436862D01*
X21985456Y-11458289D01*
X22041277Y-11475251D01*
X22098242Y-11487573D01*
X22155834Y-11495078D01*
X22166100Y-11495895D01*
X22182583Y-11497037D01*
X22195315Y-11497777D01*
X22205608Y-11498133D01*
X22214774Y-11498126D01*
X22224126Y-11497773D01*
X22234975Y-11497094D01*
X22237310Y-11496930D01*
X22260560Y-11495279D01*
X22260560Y-11491643D01*
X22551390Y-11491643D01*
X22579330Y-11477106D01*
X22592444Y-11469942D01*
X22607865Y-11460989D01*
X22623728Y-11451357D01*
X22638167Y-11442156D01*
X22639020Y-11441594D01*
X22691278Y-11404109D01*
X22739914Y-11363110D01*
X22784839Y-11318691D01*
X22825962Y-11270942D01*
X22863193Y-11219956D01*
X22874774Y-11202176D01*
X22879839Y-11193889D01*
X22885816Y-11183674D01*
X22892251Y-11172365D01*
X22898689Y-11160792D01*
X22904675Y-11149788D01*
X22909755Y-11140185D01*
X22913475Y-11132814D01*
X22915378Y-11128507D01*
X22915458Y-11127740D01*
X22913583Y-11129499D01*
X22908362Y-11134616D01*
X22900033Y-11142851D01*
X22888839Y-11153966D01*
X22875018Y-11167720D01*
X22858810Y-11183874D01*
X22840457Y-11202189D01*
X22820198Y-11222426D01*
X22798273Y-11244345D01*
X22774922Y-11267706D01*
X22750385Y-11292270D01*
X22732993Y-11309692D01*
X22551390Y-11491643D01*
X22260560Y-11491643D01*
X22260560Y-10963585D01*
X22344380Y-10963585D01*
X22345161Y-10967465D01*
X22347216Y-10974640D01*
X22350117Y-10983621D01*
X22350389Y-10984420D01*
X22364599Y-11019728D01*
X22381685Y-11050893D01*
X22401627Y-11077893D01*
X22424405Y-11100708D01*
X22450000Y-11119315D01*
X22478393Y-11133695D01*
X22491198Y-11138486D01*
X22515518Y-11144728D01*
X22542949Y-11148310D01*
X22572243Y-11149182D01*
X22602153Y-11147292D01*
X22625010Y-11143888D01*
X22656207Y-11135680D01*
X22684435Y-11123534D01*
X22709489Y-11107623D01*
X22731163Y-11088119D01*
X22749250Y-11065196D01*
X22763544Y-11039025D01*
X22770049Y-11022330D01*
X22772783Y-11013764D01*
X22774696Y-11006158D01*
X22775941Y-10998253D01*
X22776671Y-10988789D01*
X22777041Y-10976505D01*
X22777180Y-10963910D01*
X22776583Y-10938247D01*
X22774201Y-10916273D01*
X22769739Y-10896817D01*
X22762904Y-10878713D01*
X22753400Y-10860792D01*
X22749694Y-10854821D01*
X22739143Y-10839640D01*
X22727386Y-10825415D01*
X22713925Y-10811750D01*
X22698263Y-10798250D01*
X22679902Y-10784518D01*
X22658345Y-10770159D01*
X22633093Y-10754777D01*
X22603650Y-10737976D01*
X22600920Y-10736459D01*
X22576894Y-10722925D01*
X22556989Y-10711210D01*
X22540720Y-10700991D01*
X22527602Y-10691947D01*
X22517149Y-10683755D01*
X22508877Y-10676091D01*
X22506832Y-10673939D01*
X22497463Y-10662189D01*
X22491928Y-10650689D01*
X22489472Y-10637509D01*
X22489160Y-10628807D01*
X22491212Y-10608954D01*
X22497297Y-10591881D01*
X22507312Y-10577849D01*
X22510876Y-10574440D01*
X22521231Y-10566833D01*
X22532479Y-10561947D01*
X22545819Y-10559456D01*
X22562451Y-10559039D01*
X22567383Y-10559227D01*
X22579511Y-10560074D01*
X22588259Y-10561500D01*
X22595323Y-10563900D01*
X22601481Y-10567120D01*
X22615816Y-10577969D01*
X22629045Y-10593170D01*
X22641405Y-10613013D01*
X22646272Y-10622551D01*
X22658080Y-10646951D01*
X22692365Y-10637550D01*
X22714739Y-10631356D01*
X22732634Y-10626249D01*
X22746497Y-10622075D01*
X22756777Y-10618677D01*
X22763919Y-10615899D01*
X22768370Y-10613586D01*
X22770579Y-10611582D01*
X22771031Y-10610133D01*
X22769874Y-10604476D01*
X22766845Y-10595467D01*
X22762439Y-10584250D01*
X22757149Y-10571970D01*
X22751469Y-10559771D01*
X22745894Y-10548797D01*
X22740918Y-10540191D01*
X22740641Y-10539763D01*
X22724849Y-10519275D01*
X22705533Y-10500264D01*
X22684134Y-10484011D01*
X22666624Y-10473924D01*
X22649034Y-10465823D01*
X22632991Y-10459854D01*
X22617133Y-10455727D01*
X22600095Y-10453151D01*
X22580514Y-10451834D01*
X22561550Y-10451489D01*
X22545242Y-10451523D01*
X22532694Y-10451844D01*
X22522584Y-10452581D01*
X22513596Y-10453863D01*
X22504410Y-10455819D01*
X22496211Y-10457910D01*
X22466074Y-10468193D01*
X22439423Y-10482052D01*
X22416366Y-10499393D01*
X22397012Y-10520118D01*
X22381472Y-10544132D01*
X22370915Y-10568252D01*
X22368238Y-10576269D01*
X22366293Y-10583586D01*
X22364931Y-10591344D01*
X22364001Y-10600683D01*
X22363354Y-10612745D01*
X22362838Y-10628669D01*
X22362805Y-10629900D01*
X22362435Y-10645920D01*
X22362367Y-10657922D01*
X22362681Y-10666965D01*
X22363456Y-10674105D01*
X22364771Y-10680401D01*
X22366705Y-10686909D01*
X22367169Y-10688320D01*
X22377943Y-10713061D01*
X22393342Y-10736961D01*
X22412922Y-10759468D01*
X22436235Y-10780030D01*
X22448520Y-10788977D01*
X22456390Y-10794109D01*
X22467737Y-10801168D01*
X22481614Y-10809583D01*
X22497075Y-10818782D01*
X22513172Y-10828194D01*
X22519640Y-10831926D01*
X22543181Y-10845568D01*
X22562748Y-10857189D01*
X22578864Y-10867135D01*
X22592049Y-10875753D01*
X22602824Y-10883391D01*
X22611709Y-10890396D01*
X22619227Y-10897114D01*
X22622805Y-10900647D01*
X22634553Y-10914203D01*
X22642318Y-10927421D01*
X22646803Y-10941915D01*
X22648714Y-10959301D01*
X22648748Y-10960100D01*
X22647865Y-10981115D01*
X22643291Y-10998945D01*
X22634873Y-11014054D01*
X22628312Y-11021608D01*
X22616892Y-11031324D01*
X22604821Y-11037723D01*
X22590772Y-11041298D01*
X22573416Y-11042539D01*
X22571710Y-11042552D01*
X22559848Y-11042393D01*
X22551247Y-11041575D01*
X22544097Y-11039760D01*
X22536590Y-11036609D01*
X22534428Y-11035564D01*
X22518157Y-11024980D01*
X22503206Y-11010210D01*
X22490192Y-10992100D01*
X22479734Y-10971498D01*
X22473038Y-10951598D01*
X22470766Y-10943470D01*
X22468782Y-10937494D01*
X22467723Y-10935276D01*
X22464985Y-10935386D01*
X22458129Y-10936398D01*
X22448005Y-10938145D01*
X22435462Y-10940460D01*
X22421349Y-10943175D01*
X22406515Y-10946122D01*
X22391809Y-10949136D01*
X22378079Y-10952048D01*
X22366176Y-10954691D01*
X22356947Y-10956898D01*
X22353905Y-10957701D01*
X22347826Y-10960136D01*
X22344559Y-10962909D01*
X22344380Y-10963585D01*
X22260560Y-10963585D01*
X22260560Y-10772048D01*
X22260560Y-10098801D01*
X22510750Y-10098801D01*
X22560280Y-10148678D01*
X22573777Y-10162135D01*
X22586630Y-10174698D01*
X22598257Y-10185819D01*
X22608078Y-10194948D01*
X22615512Y-10201538D01*
X22619970Y-10205036D01*
X22649903Y-10225844D01*
X22680768Y-10250466D01*
X22711629Y-10277992D01*
X22741551Y-10307509D01*
X22769598Y-10338108D01*
X22794836Y-10368878D01*
X22811097Y-10391140D01*
X22819845Y-10402847D01*
X22831513Y-10416756D01*
X22846364Y-10433160D01*
X22864661Y-10452355D01*
X22878670Y-10466611D01*
X22891791Y-10479762D01*
X22903732Y-10491594D01*
X22914037Y-10501665D01*
X22922247Y-10509531D01*
X22927903Y-10514749D01*
X22930548Y-10516876D01*
X22930675Y-10516892D01*
X22929934Y-10514397D01*
X22927245Y-10508074D01*
X22922933Y-10498636D01*
X22917326Y-10486798D01*
X22910750Y-10473272D01*
X22910074Y-10471901D01*
X22883193Y-10422192D01*
X22852462Y-10374009D01*
X22818492Y-10328170D01*
X22781895Y-10285493D01*
X22743283Y-10246795D01*
X22738080Y-10242039D01*
X22698054Y-10208218D01*
X22655867Y-10177019D01*
X22612430Y-10149036D01*
X22568653Y-10124862D01*
X22532340Y-10107958D01*
X22510750Y-10098801D01*
X22260560Y-10098801D01*
X22260560Y-10048817D01*
X22253497Y-10047780D01*
X22245445Y-10047260D01*
X22233347Y-10047324D01*
X22218195Y-10047902D01*
X22200982Y-10048922D01*
X22182699Y-10050313D01*
X22164338Y-10052003D01*
X22146891Y-10053920D01*
X22131350Y-10055994D01*
X22124670Y-10057056D01*
X22063592Y-10069979D01*
X22004342Y-10087610D01*
X21947094Y-10109859D01*
X21892024Y-10136636D01*
X21839309Y-10167849D01*
X21789122Y-10203408D01*
X21741641Y-10243224D01*
X21715691Y-10267950D01*
X21674515Y-10312477D01*
X21637681Y-10359405D01*
X21605215Y-10408474D01*
X21577144Y-10459423D01*
X21553493Y-10511992D01*
X21534290Y-10565921D01*
X21519560Y-10620948D01*
X21509329Y-10676814D01*
X21503624Y-10733258D01*
X21502472Y-10790019D01*
X21473366Y-10790019D01*
X21473326Y-10789345D01*
X21474647Y-10729583D01*
X21480796Y-10670022D01*
X21491787Y-10610938D01*
X21507633Y-10552611D01*
X21528347Y-10495320D01*
X21535181Y-10479137D01*
X21561668Y-10424696D01*
X21592476Y-10372689D01*
X21627353Y-10323337D01*
X21666048Y-10276862D01*
X21708308Y-10233486D01*
X21753882Y-10193430D01*
X21802518Y-10156916D01*
X21853963Y-10124166D01*
X21907967Y-10095400D01*
X21964276Y-10070841D01*
X22021912Y-10050929D01*
X22074090Y-10037118D01*
X22126738Y-10027169D01*
X22181125Y-10020873D01*
X22219011Y-10018601D01*
X22260560Y-10016962D01*
X22260560Y-9995942D01*
X22260484Y-9989820D01*
X22403649Y-9989820D01*
X22404665Y-9991509D01*
X22408757Y-9996189D01*
X22415386Y-10003282D01*
X22424015Y-10012210D01*
X22431994Y-10020285D01*
X22443212Y-10031473D01*
X22451715Y-10039670D01*
X22458358Y-10045499D01*
X22463994Y-10049586D01*
X22469477Y-10052555D01*
X22475659Y-10055030D01*
X22482755Y-10057426D01*
X22538547Y-10078354D01*
X22592526Y-10103861D01*
X22644439Y-10133695D01*
X22694031Y-10167598D01*
X22741049Y-10205318D01*
X22785239Y-10246600D01*
X22826347Y-10291188D01*
X22864120Y-10338828D01*
X22898303Y-10389266D01*
X22928643Y-10442246D01*
X22954886Y-10497514D01*
X22975971Y-10552430D01*
X22978490Y-10559346D01*
X22981207Y-10565204D01*
X22984760Y-10570856D01*
X22989789Y-10577152D01*
X22996933Y-10584942D01*
X23006830Y-10595077D01*
X23011694Y-10599969D01*
X23021611Y-10609805D01*
X23030238Y-10618150D01*
X23036968Y-10624433D01*
X23041189Y-10628080D01*
X23042336Y-10628751D01*
X23042197Y-10626023D01*
X23041010Y-10619531D01*
X23038998Y-10610430D01*
X23037773Y-10605342D01*
X23031821Y-10583509D01*
X23024124Y-10558726D01*
X23015230Y-10532573D01*
X23005684Y-10506635D01*
X22996035Y-10482494D01*
X22992155Y-10473434D01*
X22964022Y-10415406D01*
X22931720Y-10359947D01*
X22895481Y-10307283D01*
X22855537Y-10257637D01*
X22812123Y-10211236D01*
X22765470Y-10168302D01*
X22715812Y-10129060D01*
X22663382Y-10093735D01*
X22608412Y-10062552D01*
X22551135Y-10035735D01*
X22528695Y-10026690D01*
X22515525Y-10021855D01*
X22500196Y-10016617D01*
X22483560Y-10011227D01*
X22466475Y-10005938D01*
X22449794Y-10001003D01*
X22434373Y-9996673D01*
X22421068Y-9993201D01*
X22410733Y-9990838D01*
X22404223Y-9989837D01*
X22403649Y-9989820D01*
X22260484Y-9989820D01*
X22260431Y-9985471D01*
X22259885Y-9978996D01*
X22258686Y-9975439D01*
X22256597Y-9973719D01*
X22255603Y-9973349D01*
X22251000Y-9972884D01*
X22242217Y-9972863D01*
X22230132Y-9973231D01*
X22215621Y-9973933D01*
X22199560Y-9974913D01*
X22182826Y-9976116D01*
X22166295Y-9977487D01*
X22150843Y-9978971D01*
X22137347Y-9980512D01*
X22133288Y-9981050D01*
X22071344Y-9992167D01*
X22010447Y-10008128D01*
X21950912Y-10028750D01*
X21893055Y-10053847D01*
X21837193Y-10083238D01*
X21783641Y-10116738D01*
X21732716Y-10154164D01*
X21684733Y-10195332D01*
X21640008Y-10240058D01*
X21598858Y-10288160D01*
X21594062Y-10294298D01*
X21557987Y-10344949D01*
X21526144Y-10398037D01*
X21498619Y-10453234D01*
X21475502Y-10510209D01*
X21456878Y-10568633D01*
X21442836Y-10628177D01*
X21433462Y-10688512D01*
X21428846Y-10749308D01*
X21400868Y-10749308D01*
X21401051Y-10737164D01*
X21402004Y-10712023D01*
X21403511Y-10689782D01*
X21405359Y-10673080D01*
X21417025Y-10607398D01*
X21433194Y-10544066D01*
X21453865Y-10483087D01*
X21479035Y-10424466D01*
X21508703Y-10368204D01*
X21542867Y-10314307D01*
X21581526Y-10262778D01*
X21624677Y-10213621D01*
X21651278Y-10186667D01*
X21700630Y-10142157D01*
X21752617Y-10101949D01*
X21807059Y-10066120D01*
X21863779Y-10034746D01*
X21922598Y-10007903D01*
X21983338Y-9985669D01*
X22045819Y-9968118D01*
X22109864Y-9955327D01*
X22175294Y-9947373D01*
X22216745Y-9944894D01*
X22260560Y-9943300D01*
X22260560Y-9920552D01*
X22260560Y-9903460D01*
X22315265Y-9903460D01*
X22340095Y-9928384D01*
X22364926Y-9953307D01*
X22384498Y-9956482D01*
X22405070Y-9960357D01*
X22428816Y-9965725D01*
X22454195Y-9972184D01*
X22479667Y-9979333D01*
X22503692Y-9986771D01*
X22513526Y-9990072D01*
X22574060Y-10013662D01*
X22632657Y-10041909D01*
X22689086Y-10074687D01*
X22743115Y-10111867D01*
X22764750Y-10128537D01*
X22779761Y-10141130D01*
X22797098Y-10156745D01*
X22815861Y-10174483D01*
X22835151Y-10193443D01*
X22854070Y-10212729D01*
X22871719Y-10231439D01*
X22887198Y-10248676D01*
X22899077Y-10262870D01*
X22939455Y-10317572D01*
X22975198Y-10374351D01*
X23006305Y-10433207D01*
X23032777Y-10494143D01*
X23054615Y-10557160D01*
X23071820Y-10622259D01*
X23077170Y-10647680D01*
X23081401Y-10669270D01*
X23105943Y-10694071D01*
X23114869Y-10702851D01*
X23122472Y-10709879D01*
X23128095Y-10714579D01*
X23131075Y-10716375D01*
X23131364Y-10716238D01*
X23131448Y-10712667D01*
X23130921Y-10705388D01*
X23129889Y-10695721D01*
X23129354Y-10691437D01*
X23124053Y-10657817D01*
X23116678Y-10621392D01*
X23107643Y-10583787D01*
X23097359Y-10546626D01*
X23086238Y-10511536D01*
X23077637Y-10487660D01*
X23051117Y-10425217D01*
X23020444Y-10365340D01*
X22985818Y-10308213D01*
X22947438Y-10254023D01*
X22905505Y-10202955D01*
X22860217Y-10155196D01*
X22811774Y-10110931D01*
X22760376Y-10070347D01*
X22706223Y-10033628D01*
X22649513Y-10000962D01*
X22590447Y-9972533D01*
X22529225Y-9948528D01*
X22482826Y-9933772D01*
X22463445Y-9928532D01*
X22442221Y-9923361D01*
X22420069Y-9918432D01*
X22397904Y-9913922D01*
X22376643Y-9910004D01*
X22357200Y-9906852D01*
X22340492Y-9904642D01*
X22327432Y-9903547D01*
X22323782Y-9903460D01*
X22315265Y-9903460D01*
X22260560Y-9903460D01*
X22260560Y-9897805D01*
X22221825Y-9899530D01*
X22155994Y-9904412D01*
X22093001Y-9913133D01*
X22032223Y-9925814D01*
X21973036Y-9942575D01*
X21938160Y-9954593D01*
X21919293Y-9962035D01*
X21897406Y-9971499D01*
X21873674Y-9982413D01*
X21849268Y-9994200D01*
X21825361Y-10006286D01*
X21803124Y-10018098D01*
X21783732Y-10029060D01*
X21773498Y-10035274D01*
X21716591Y-10073994D01*
X21663351Y-10116098D01*
X21613881Y-10161463D01*
X21568285Y-10209962D01*
X21526670Y-10261473D01*
X21489138Y-10315870D01*
X21455794Y-10373029D01*
X21426743Y-10432825D01*
X21413574Y-10464397D01*
X21392042Y-10525735D01*
X21375422Y-10587962D01*
X21363674Y-10650838D01*
X21356760Y-10714121D01*
X21354638Y-10777569D01*
X21327064Y-10777569D01*
X21327033Y-10772604D01*
X21327273Y-10746459D01*
X21327913Y-10721417D01*
X21328954Y-10698506D01*
X21330397Y-10678754D01*
X21331729Y-10666730D01*
X21343332Y-10598862D01*
X21359604Y-10532863D01*
X21380489Y-10468860D01*
X21405932Y-10406978D01*
X21435877Y-10347342D01*
X21470267Y-10290077D01*
X21509047Y-10235310D01*
X21541314Y-10195560D01*
X21587889Y-10145197D01*
X21637632Y-10098696D01*
X21690310Y-10056169D01*
X21745690Y-10017729D01*
X21803540Y-9983487D01*
X21863628Y-9953555D01*
X21925720Y-9928046D01*
X21989586Y-9907071D01*
X22054991Y-9890743D01*
X22121705Y-9879173D01*
X22189493Y-9872474D01*
X22214205Y-9871273D01*
X22260560Y-9869637D01*
X22260560Y-9859350D01*
X22260560Y-9849062D01*
X22271688Y-9859984D01*
X22282816Y-9870905D01*
X22311693Y-9873214D01*
X22379867Y-9881139D01*
X22446411Y-9893870D01*
X22511288Y-9911396D01*
X22574464Y-9933706D01*
X22635903Y-9960786D01*
X22695569Y-9992624D01*
X22741328Y-10021066D01*
X22776377Y-10045338D01*
X22809051Y-10070324D01*
X22840707Y-10097142D01*
X22872700Y-10126909D01*
X22886820Y-10140814D01*
X22934751Y-10192113D01*
X22978157Y-10245691D01*
X23017118Y-10301676D01*
X23051709Y-10360194D01*
X23082010Y-10421370D01*
X23108097Y-10485333D01*
X23121154Y-10523220D01*
X23133259Y-10563707D01*
X23143301Y-10604098D01*
X23151530Y-10645662D01*
X23158200Y-10689670D01*
X23163504Y-10736789D01*
X23165113Y-10753508D01*
X23187816Y-10776106D01*
X23210520Y-10798704D01*
X23210520Y-10783251D01*
X23210135Y-10768784D01*
X23209058Y-10750635D01*
X23207409Y-10730138D01*
X23205305Y-10708627D01*
X23202865Y-10687435D01*
X23200379Y-10669052D01*
X23187756Y-10600454D01*
X23170410Y-10533270D01*
X23148508Y-10467729D01*
X23122215Y-10404062D01*
X23091701Y-10342497D01*
X23057130Y-10283264D01*
X23018669Y-10226593D01*
X22976486Y-10172713D01*
X22930748Y-10121854D01*
X22881620Y-10074246D01*
X22829270Y-10030117D01*
X22773865Y-9989698D01*
X22715571Y-9953218D01*
X22658070Y-9922616D01*
X22595243Y-9894590D01*
X22531053Y-9871319D01*
X22465223Y-9852723D01*
X22397475Y-9838724D01*
X22329140Y-9829408D01*
X22310441Y-9827964D01*
X22287937Y-9827013D01*
X22262881Y-9826545D01*
X22236523Y-9826549D01*
X22210115Y-9827017D01*
X22184907Y-9827937D01*
X22162151Y-9829300D01*
X22144990Y-9830876D01*
X22075963Y-9841150D01*
X22008485Y-9856071D01*
X21942750Y-9875478D01*
X21878952Y-9899210D01*
X21817287Y-9927105D01*
X21757948Y-9959004D01*
X21701131Y-9994743D01*
X21647031Y-10034163D01*
X21595841Y-10077102D01*
X21547756Y-10123399D01*
X21502972Y-10172892D01*
X21461683Y-10225422D01*
X21424084Y-10280825D01*
X21390368Y-10338942D01*
X21360732Y-10399612D01*
X21335369Y-10462672D01*
X21318088Y-10515404D01*
X21301382Y-10580832D01*
X21289632Y-10646939D01*
X21282800Y-10713476D01*
X21280847Y-10780197D01*
X21252595Y-10780197D01*
X21252272Y-10754617D01*
X21255999Y-10687452D01*
X21264308Y-10620994D01*
X21277203Y-10555831D01*
X21279044Y-10548189D01*
X21298198Y-10480684D01*
X21321984Y-10415237D01*
X21350348Y-10351946D01*
X21383233Y-10290911D01*
X21420584Y-10232230D01*
X21462346Y-10176002D01*
X21508465Y-10122327D01*
X21528340Y-10101367D01*
X21580341Y-10051623D01*
X21635229Y-10006020D01*
X21692836Y-9964639D01*
X21752994Y-9927562D01*
X21815536Y-9894871D01*
X21880294Y-9866646D01*
X21947100Y-9842970D01*
X22015787Y-9823923D01*
X22086187Y-9809589D01*
X22144990Y-9801417D01*
X22159156Y-9800238D01*
X22177258Y-9799323D01*
X22198293Y-9798671D01*
X22221257Y-9798282D01*
X22245146Y-9798156D01*
X22268958Y-9798294D01*
X22291689Y-9798694D01*
X22312334Y-9799356D01*
X22329891Y-9800282D01*
X22343110Y-9801441D01*
X22409445Y-9811170D01*
X22473266Y-9824462D01*
X22533918Y-9841179D01*
X22539214Y-9842852D01*
X22604666Y-9866380D01*
X22667943Y-9894379D01*
X22728867Y-9926646D01*
X22787260Y-9962980D01*
X22842944Y-10003181D01*
X22895742Y-10047047D01*
X22945476Y-10094378D01*
X22991967Y-10144972D01*
X23035039Y-10198628D01*
X23074514Y-10255145D01*
X23110213Y-10314322D01*
X23141959Y-10375957D01*
X23169574Y-10439851D01*
X23192881Y-10505802D01*
X23211701Y-10573608D01*
X23220429Y-10613390D01*
X23225149Y-10638139D01*
X23228914Y-10660376D01*
X23231843Y-10681292D01*
X23234054Y-10702077D01*
X23235669Y-10723924D01*
X23236805Y-10748024D01*
X23237583Y-10775567D01*
X23237803Y-10786890D01*
X23238104Y-10824806D01*
X23237513Y-10858917D01*
X23235927Y-10890438D01*
X23233246Y-10920581D01*
X23229365Y-10950560D01*
X23224183Y-10981589D01*
X23219215Y-11007090D01*
X23202748Y-11074950D01*
X23181604Y-11141115D01*
X23155957Y-11205392D01*
X23125981Y-11267588D01*
X23091853Y-11327511D01*
X23053747Y-11384967D01*
X23011838Y-11439764D01*
X22966300Y-11491709D01*
X22917310Y-11540609D01*
X22865041Y-11586271D01*
X22809669Y-11628503D01*
X22751369Y-11667110D01*
X22690315Y-11701902D01*
X22626683Y-11732685D01*
X22560648Y-11759265D01*
X22525990Y-11771177D01*
X22456749Y-11791004D01*
X22386755Y-11805883D01*
X22316243Y-11815806D01*
X22245445Y-11820772D01*
X22174595Y-11820773D01*
X22103926Y-11815805D01*
X22033672Y-11805865D01*
X21964065Y-11790946D01*
X21935440Y-11783296D01*
X21868348Y-11761706D01*
X21803287Y-11735584D01*
X21740432Y-11705129D01*
X21679960Y-11670539D01*
X21622046Y-11632010D01*
X21566865Y-11589742D01*
X21514594Y-11543932D01*
X21465408Y-11494777D01*
X21419483Y-11442476D01*
X21376994Y-11387227D01*
X21338118Y-11329227D01*
X21303030Y-11268675D01*
X21271906Y-11205767D01*
X21244921Y-11140703D01*
X21222251Y-11073680D01*
X21204073Y-11004895D01*
X21192562Y-10946849D01*
X21183340Y-10877516D01*
X21178820Y-10807135D01*
X21178992Y-10736404D01*
X21183843Y-10666017D01*
X21193362Y-10596674D01*
X21199001Y-10566790D01*
X21210224Y-10518796D01*
X21224370Y-10469347D01*
X21240775Y-10420587D01*
X21257590Y-10377470D01*
X21263657Y-10363458D01*
X21270583Y-10348182D01*
X21277962Y-10332468D01*
X21285388Y-10317137D01*
X21292454Y-10303013D01*
X21298755Y-10290919D01*
X21303884Y-10281677D01*
X21307436Y-10276112D01*
X21307871Y-10275570D01*
X21311143Y-10271051D01*
X21316002Y-10263505D01*
X21321554Y-10254337D01*
X21323244Y-10251440D01*
X21331257Y-10238196D01*
X21341567Y-10222076D01*
X21353386Y-10204238D01*
X21365922Y-10185841D01*
X21378384Y-10168040D01*
X21389983Y-10151995D01*
X21399927Y-10138862D01*
X21401328Y-10137088D01*
X21409385Y-10126810D01*
X21417123Y-10116671D01*
X21423444Y-10108125D01*
X21426170Y-10104261D01*
X21430218Y-10099098D01*
X21437184Y-10091045D01*
X21446413Y-10080824D01*
X21457251Y-10069158D01*
X21469043Y-10056768D01*
X21472730Y-10052954D01*
X21526555Y-10001062D01*
X21583265Y-9953279D01*
X21642693Y-9909698D01*
X21704671Y-9870409D01*
X21769033Y-9835507D01*
X21835612Y-9805082D01*
X21904240Y-9779227D01*
X21974751Y-9758033D01*
X22031960Y-9744589D01*
X22100288Y-9732945D01*
X22170072Y-9725860D01*
X22240551Y-9723343D01*
X22310962Y-9725403D01*
X22380544Y-9732050D01*
X22430740Y-9739869D01*
X22501469Y-9755339D01*
X22570769Y-9775613D01*
X22638409Y-9800562D01*
X22704159Y-9830055D01*
X22767789Y-9863959D01*
X22829069Y-9902145D01*
X22887769Y-9944480D01*
X22943659Y-9990835D01*
X22996509Y-10041078D01*
X23037981Y-10085730D01*
X23085373Y-10143453D01*
X23128458Y-10203578D01*
X23167181Y-10265887D01*
X23201485Y-10330159D01*
X23231315Y-10396172D01*
X23256616Y-10463706D01*
X23277333Y-10532541D01*
X23293410Y-10602455D01*
X23304791Y-10673228D01*
X23311422Y-10744640D01*
X23313247Y-10816469D01*
X23310211Y-10888495D01*
X23302257Y-10960498D01*
X23289332Y-11032256D01*
X23282771Y-11060785D01*
X23263177Y-11130413D01*
X23238995Y-11198126D01*
X23210408Y-11263754D01*
X23177600Y-11327127D01*
X23140752Y-11388075D01*
X23100048Y-11446429D01*
X23055671Y-11502017D01*
X23007803Y-11554671D01*
X22956628Y-11604220D01*
X22902329Y-11650495D01*
X22845088Y-11693326D01*
X22785089Y-11732542D01*
X22722513Y-11767975D01*
X22657545Y-11799453D01*
X22590367Y-11826807D01*
X22521162Y-11849868D01*
X22450114Y-11868464D01*
X22402800Y-11878120D01*
X22379266Y-11882249D01*
X22358129Y-11885591D01*
X22338404Y-11888221D01*
X22319104Y-11890218D01*
X22299245Y-11891659D01*
X22277839Y-11892624D01*
X22253901Y-11893188D01*
X22226446Y-11893431D01*
X22208490Y-11893455D01*
X22177899Y-11893301D01*
X22151339Y-11892824D01*
X22127766Y-11891937D01*
X22106138Y-11890551D01*
X22085410Y-11888579D01*
X22064540Y-11885933D01*
X22042484Y-11882527D01*
X22018198Y-11878271D01*
X22010370Y-11876825D01*
X21939342Y-11861040D01*
X21870028Y-11840588D01*
X21802596Y-11815641D01*
X21737216Y-11786371D01*
X21674054Y-11752950D01*
X21613282Y-11715550D01*
X21555067Y-11674344D01*
X21499578Y-11629504D01*
X21446983Y-11581202D01*
X21397453Y-11529609D01*
X21351155Y-11474899D01*
X21308258Y-11417244D01*
X21268931Y-11356815D01*
X21233344Y-11293785D01*
X21201663Y-11228325D01*
X21174059Y-11160609D01*
X21150701Y-11090808D01*
X21131756Y-11019095D01*
X21121653Y-10970260D01*
X21117611Y-10947588D01*
X21114319Y-10927157D01*
X21111705Y-10908040D01*
X21109697Y-10889313D01*
X21108222Y-10870051D01*
X21107209Y-10849328D01*
X21106585Y-10826220D01*
X21106279Y-10799800D01*
X21106215Y-10772140D01*
X21106264Y-10747072D01*
X21106399Y-10726295D01*
X21106654Y-10709017D01*
X21107065Y-10694449D01*
X21107666Y-10681801D01*
X21108493Y-10670284D01*
X21109579Y-10659106D01*
X21110961Y-10647479D01*
X21112103Y-10638790D01*
X21123622Y-10567894D01*
X21138710Y-10500138D01*
X21157591Y-10434938D01*
X21180488Y-10371715D01*
X21207623Y-10309885D01*
X21239220Y-10248869D01*
X21275502Y-10188083D01*
X21298216Y-10153532D01*
X21316727Y-10127397D01*
X21337802Y-10099596D01*
X21360684Y-10071013D01*
X21384617Y-10042530D01*
X21408846Y-10015029D01*
X21432614Y-9989394D01*
X21455164Y-9966506D01*
X21472421Y-9950222D01*
X21530874Y-9900676D01*
X21591968Y-9855317D01*
X21655483Y-9814231D01*
X21721201Y-9777505D01*
X21788902Y-9745222D01*
X21858366Y-9717469D01*
X21929374Y-9694332D01*
X22001708Y-9675895D01*
X22075146Y-9662244D01*
X22149471Y-9653465D01*
X22224462Y-9649643D01*
X22244050Y-9649472D01*
X22318974Y-9651964D01*
X22392933Y-9659367D01*
X22465746Y-9671574D01*
X22537228Y-9688476D01*
X22607197Y-9709964D01*
X22675468Y-9735931D01*
X22741859Y-9766269D01*
X22806187Y-9800869D01*
X22868268Y-9839623D01*
X22927918Y-9882423D01*
X22984956Y-9929161D01*
X23039196Y-9979729D01*
X23090457Y-10034017D01*
X23138554Y-10091919D01*
X23183305Y-10153326D01*
X23224526Y-10218130D01*
X23233541Y-10233594D01*
X23269503Y-10301403D01*
X23300771Y-10371143D01*
X23327330Y-10442764D01*
X23349163Y-10516213D01*
X23366253Y-10591441D01*
X23378584Y-10668395D01*
X23382191Y-10699750D01*
X23384058Y-10722966D01*
X23385379Y-10749942D01*
X23386155Y-10779390D01*
X23386386Y-10810025D01*
X23386072Y-10840561D01*
X23385212Y-10869711D01*
X23383807Y-10896191D01*
X23382184Y-10915650D01*
X23372143Y-10991218D01*
X23357713Y-11064423D01*
X23338790Y-11135626D01*
X23315271Y-11205188D01*
X23287053Y-11273471D01*
X23270116Y-11309350D01*
X23234374Y-11376222D01*
X23194476Y-11440347D01*
X23150637Y-11501572D01*
X23103069Y-11559744D01*
X23051985Y-11614710D01*
X22997599Y-11666315D01*
X22940123Y-11714407D01*
X22879772Y-11758832D01*
X22816757Y-11799437D01*
X22751292Y-11836069D01*
X22683590Y-11868573D01*
X22613864Y-11896797D01*
X22542329Y-11920587D01*
X22469196Y-11939791D01*
X22394678Y-11954253D01*
X22368510Y-11958140D01*
X22302426Y-11965170D01*
X22234915Y-11968496D01*
X22167318Y-11968112D01*
X22100977Y-11964011D01*
X22059900Y-11959447D01*
X21984973Y-11947053D01*
X21911442Y-11929845D01*
X21839484Y-11907941D01*
X21769281Y-11881459D01*
X21701012Y-11850518D01*
X21634856Y-11815236D01*
X21570992Y-11775731D01*
X21509601Y-11732121D01*
X21450863Y-11684526D01*
X21394955Y-11633062D01*
X21342059Y-11577848D01*
X21292354Y-11519003D01*
X21246019Y-11456644D01*
X21207704Y-11398194D01*
X21195241Y-11377079D01*
X21181619Y-11352427D01*
X21167451Y-11325464D01*
X21153349Y-11297414D01*
X21139925Y-11269504D01*
X21127793Y-11242958D01*
X21117563Y-11219000D01*
X21115180Y-11213068D01*
X21090289Y-11144397D01*
X21069729Y-11075105D01*
X21053272Y-11004294D01*
X21040689Y-10931061D01*
X21037417Y-10906760D01*
X21035884Y-10891432D01*
X21034557Y-10872002D01*
X21033455Y-10849444D01*
X21032594Y-10824732D01*
X21031991Y-10798840D01*
X21031662Y-10772743D01*
X21031626Y-10747414D01*
X21031898Y-10723829D01*
X21032496Y-10702961D01*
X21033436Y-10685784D01*
X21033559Y-10684184D01*
X21042062Y-10608214D01*
X21055337Y-10533117D01*
X21073277Y-10459333D01*
X21095774Y-10387302D01*
X21122722Y-10317463D01*
X21123017Y-10316769D01*
X21128917Y-10303288D01*
X21135765Y-10288259D01*
X21143191Y-10272436D01*
X21150822Y-10256573D01*
X21158286Y-10241422D01*
X21165210Y-10227737D01*
X21171224Y-10216271D01*
X21175955Y-10207777D01*
X21179032Y-10203009D01*
X21179408Y-10202577D01*
X21181736Y-10199392D01*
X21186153Y-10192659D01*
X21192142Y-10183191D01*
X21199185Y-10171801D01*
X21204023Y-10163854D01*
X21235880Y-10114143D01*
X21270525Y-10065856D01*
X21308465Y-10018366D01*
X21350206Y-9971047D01*
X21396255Y-9923273D01*
X21407504Y-9912160D01*
X21426090Y-9894172D01*
X21442455Y-9878888D01*
X21457807Y-9865264D01*
X21473353Y-9852254D01*
X21490301Y-9838814D01*
X21507876Y-9825396D01*
X21572407Y-9779821D01*
X21639297Y-9738556D01*
X21708295Y-9701706D01*
X21779150Y-9669378D01*
X21851612Y-9641678D01*
X21925429Y-9618712D01*
X22000351Y-9600585D01*
X22068224Y-9588540D01*
X22089941Y-9585433D01*
X22109130Y-9582935D01*
X22126777Y-9580983D01*
X22143870Y-9579513D01*
X22161396Y-9578463D01*
X22180339Y-9577770D01*
X22201688Y-9577372D01*
X22226428Y-9577206D01*
X22246590Y-9577194D01*
X22277193Y-9577346D01*
X22303747Y-9577782D01*
X22327281Y-9578583D01*
X22348822Y-9579826D01*
X22369399Y-9581591D01*
X22390038Y-9583959D01*
X22411768Y-9587007D01*
X22435616Y-9590815D01*
X22445980Y-9592569D01*
X22521337Y-9608034D01*
X22595213Y-9628283D01*
X22667421Y-9653189D01*
X22737772Y-9682625D01*
X22806081Y-9716461D01*
X22872160Y-9754571D01*
X22935820Y-9796827D01*
X22996876Y-9843101D01*
X23055140Y-9893265D01*
X23110424Y-9947191D01*
X23162541Y-10004752D01*
X23211305Y-10065820D01*
X23256527Y-10130267D01*
X23273891Y-10157460D01*
X23313181Y-10225404D01*
X23347897Y-10295188D01*
X23378016Y-10366576D01*
X23403512Y-10439334D01*
X23424360Y-10513229D01*
X23440536Y-10588026D01*
X23452015Y-10663491D01*
X23458773Y-10739389D01*
X23460784Y-10815487D01*
X23458024Y-10891551D01*
X23450468Y-10967345D01*
X23438091Y-11042637D01*
X23420869Y-11117191D01*
X23398777Y-11190774D01*
X23386630Y-11225155D01*
X23357088Y-11297940D01*
X23323483Y-11367811D01*
X23285706Y-11434934D01*
X23243649Y-11499481D01*
X23197203Y-11561619D01*
X23146258Y-11621518D01*
X23098834Y-11671300D01*
X23040050Y-11726453D01*
X22978404Y-11777487D01*
X22914078Y-11824319D01*
X22847253Y-11866864D01*
X22778111Y-11905038D01*
X22706832Y-11938758D01*
X22633598Y-11967939D01*
X22558591Y-11992498D01*
X22481992Y-12012351D01*
X22403982Y-12027413D01*
X22324743Y-12037602D01*
X22302736Y-12039540D01*
X22288624Y-12040373D01*
X22270499Y-12041005D01*
X22249416Y-12041437D01*
X22226433Y-12041671D01*
X22202604Y-12041708D01*
X22178987Y-12041549D01*
X22156637Y-12041194D01*
X22136611Y-12040645D01*
X22119965Y-12039903D01*
X22111970Y-12039359D01*
X22034006Y-12030492D01*
X21957228Y-12016755D01*
X21881820Y-11998260D01*
X21807967Y-11975116D01*
X21735852Y-11947436D01*
X21665661Y-11915329D01*
X21597577Y-11878906D01*
X21531785Y-11838279D01*
X21468467Y-11793558D01*
X21407810Y-11744853D01*
X21349997Y-11692275D01*
X21295212Y-11635936D01*
X21243639Y-11575946D01*
X21195463Y-11512416D01*
X21167423Y-11471364D01*
X21124951Y-11402053D01*
X21087093Y-11330777D01*
X21053907Y-11257704D01*
X21025451Y-11182999D01*
X21001781Y-11106828D01*
X20982956Y-11029358D01*
X20969032Y-10950755D01*
X20960214Y-10872967D01*
X20959224Y-10857120D01*
X20958472Y-10837288D01*
X20957958Y-10814560D01*
X20957682Y-10790025D01*
X20957644Y-10764773D01*
X20957845Y-10739894D01*
X20958283Y-10716475D01*
X20958960Y-10695607D01*
X20959874Y-10678379D01*
X20960214Y-10673853D01*
X20969166Y-10595716D01*
X20983099Y-10517927D01*
X21001918Y-10440890D01*
X21025524Y-10365007D01*
X21051661Y-10295890D01*
X21061060Y-10274086D01*
X21072073Y-10250261D01*
X21084277Y-10225203D01*
X21097251Y-10199699D01*
X21110574Y-10174535D01*
X21123826Y-10150501D01*
X21136584Y-10128381D01*
X21148429Y-10108965D01*
X21158938Y-10093039D01*
X21163674Y-10086480D01*
X21168363Y-10080178D01*
X21175186Y-10070916D01*
X21183295Y-10059849D01*
X21191843Y-10048130D01*
X21193509Y-10045840D01*
X21214953Y-10017299D01*
X21238332Y-9987888D01*
X21262813Y-9958568D01*
X21287565Y-9930302D01*
X21311755Y-9904054D01*
X21334551Y-9880786D01*
X21343958Y-9871710D01*
X21366578Y-9850429D01*
X21386082Y-9832310D01*
X21402948Y-9816927D01*
X21417654Y-9803851D01*
X21430679Y-9792656D01*
X21442500Y-9782914D01*
X21449955Y-9777010D01*
X21512944Y-9731007D01*
X21578993Y-9688633D01*
X21647621Y-9650117D01*
X21718343Y-9615689D01*
X21790676Y-9585577D01*
X21864138Y-9560013D01*
X21938245Y-9539225D01*
X21962110Y-9533598D01*
X22000210Y-9525033D01*
X22245147Y-9525016D01*
X22490084Y-9525000D01*
X22529627Y-9534165D01*
G37*
%TD.AperFunction*%
%TD*%
M02*
