%TF.GenerationSoftware,KiCad,Pcbnew,9.0.1*%
%TF.CreationDate,2025-06-06T15:08:54-07:00*%
%TF.ProjectId,basic_keychain,62617369-635f-46b6-9579-636861696e2e,rev?*%
%TF.SameCoordinates,Original*%
%TF.FileFunction,Soldermask,Top*%
%TF.FilePolarity,Negative*%
%FSLAX45Y45*%
G04 Gerber Fmt 4.5, Leading zero omitted, Abs format (unit mm)*
G04 Created by KiCad (PCBNEW 9.0.1) date 2025-06-06 15:08:54*
%MOMM*%
%LPD*%
G01*
G04 APERTURE LIST*
%ADD10C,0.000000*%
G04 APERTURE END LIST*
D10*
%TO.C,G\u002A\u002A\u002A*%
G36*
X21886350Y-10448937D02*
G01*
X21900049Y-10449210D01*
X21910907Y-10449784D01*
X21920049Y-10450756D01*
X21928599Y-10452222D01*
X21937682Y-10454281D01*
X21941032Y-10455118D01*
X21971405Y-10464902D01*
X21997956Y-10477950D01*
X22020836Y-10494414D01*
X22040192Y-10514443D01*
X22056174Y-10538190D01*
X22068930Y-10565803D01*
X22077623Y-10593491D01*
X22080487Y-10607431D01*
X22083024Y-10625151D01*
X22085107Y-10645346D01*
X22086612Y-10666709D01*
X22087412Y-10687935D01*
X22087507Y-10696378D01*
X22087565Y-10718647D01*
X22020468Y-10718647D01*
X21953370Y-10718647D01*
X21952027Y-10674744D01*
X21950798Y-10650204D01*
X21948607Y-10630111D01*
X21945221Y-10613873D01*
X21940405Y-10600900D01*
X21933926Y-10590600D01*
X21925551Y-10582384D01*
X21915046Y-10575659D01*
X21912336Y-10574276D01*
X21904977Y-10570936D01*
X21898366Y-10568844D01*
X21890903Y-10567717D01*
X21880991Y-10567272D01*
X21872505Y-10567214D01*
X21853781Y-10567876D01*
X21838918Y-10570062D01*
X21826835Y-10574072D01*
X21816454Y-10580207D01*
X21811549Y-10584178D01*
X21804725Y-10590923D01*
X21799361Y-10598236D01*
X21795234Y-10606874D01*
X21792124Y-10617594D01*
X21789809Y-10631155D01*
X21788066Y-10648315D01*
X21786718Y-10669018D01*
X21786073Y-10684156D01*
X21785588Y-10702533D01*
X21785254Y-10723575D01*
X21785063Y-10746710D01*
X21785009Y-10771364D01*
X21785083Y-10796966D01*
X21785278Y-10822941D01*
X21785587Y-10848718D01*
X21786001Y-10873722D01*
X21786514Y-10897382D01*
X21787118Y-10919123D01*
X21787805Y-10938374D01*
X21788567Y-10954561D01*
X21789398Y-10967112D01*
X21790290Y-10975453D01*
X21790790Y-10977994D01*
X21797228Y-10995428D01*
X21805926Y-11008814D01*
X21817439Y-11018898D01*
X21824053Y-11022747D01*
X21830730Y-11026011D01*
X21836456Y-11028190D01*
X21842534Y-11029502D01*
X21850268Y-11030164D01*
X21860963Y-11030397D01*
X21869848Y-11030421D01*
X21883276Y-11030328D01*
X21892871Y-11029924D01*
X21899886Y-11029021D01*
X21905576Y-11027431D01*
X21911197Y-11024967D01*
X21913271Y-11023919D01*
X21922461Y-11017887D01*
X21931118Y-11010129D01*
X21934135Y-11006627D01*
X21939376Y-10998950D01*
X21943440Y-10990811D01*
X21946502Y-10981393D01*
X21948734Y-10969879D01*
X21950312Y-10955451D01*
X21951408Y-10937293D01*
X21951951Y-10922891D01*
X21953433Y-10876443D01*
X22020499Y-10876443D01*
X22087565Y-10876443D01*
X22087448Y-10891077D01*
X22086963Y-10912939D01*
X22085910Y-10935064D01*
X22084378Y-10956403D01*
X22082459Y-10975906D01*
X22080242Y-10992525D01*
X22077817Y-11005212D01*
X22077562Y-11006242D01*
X22067561Y-11036669D01*
X22053971Y-11063718D01*
X22036914Y-11087230D01*
X22016513Y-11107045D01*
X21992890Y-11123002D01*
X21985652Y-11126787D01*
X21968723Y-11134551D01*
X21952905Y-11140395D01*
X21936931Y-11144592D01*
X21919532Y-11147420D01*
X21899443Y-11149152D01*
X21878868Y-11149980D01*
X21863471Y-11150214D01*
X21848670Y-11150140D01*
X21835733Y-11149786D01*
X21825931Y-11149179D01*
X21822402Y-11148758D01*
X21789215Y-11141452D01*
X21759754Y-11130708D01*
X21733949Y-11116480D01*
X21711730Y-11098720D01*
X21693024Y-11077379D01*
X21677761Y-11052410D01*
X21676947Y-11050782D01*
X21671740Y-11039097D01*
X21666320Y-11025069D01*
X21661676Y-11011301D01*
X21660748Y-11008193D01*
X21653947Y-10984609D01*
X21652991Y-10812320D01*
X21652812Y-10777576D01*
X21652691Y-10747520D01*
X21652635Y-10721749D01*
X21652650Y-10699861D01*
X21652742Y-10681453D01*
X21652918Y-10666124D01*
X21653184Y-10653470D01*
X21653546Y-10643090D01*
X21654012Y-10634581D01*
X21654586Y-10627541D01*
X21655275Y-10621567D01*
X21656071Y-10616348D01*
X21663751Y-10582727D01*
X21674710Y-10552978D01*
X21689018Y-10527021D01*
X21706742Y-10504778D01*
X21727952Y-10486169D01*
X21752717Y-10471117D01*
X21781105Y-10459542D01*
X21796953Y-10454964D01*
X21806305Y-10452734D01*
X21814868Y-10451117D01*
X21823759Y-10450017D01*
X21834094Y-10449340D01*
X21846990Y-10448990D01*
X21863563Y-10448872D01*
X21868687Y-10448868D01*
X21886350Y-10448937D01*
G37*
G36*
X22744834Y-10331158D02*
G01*
X23229036Y-10815361D01*
X22744834Y-11299563D01*
X22260631Y-11783766D01*
X22260631Y-10963922D01*
X22344619Y-10963922D01*
X22345401Y-10967810D01*
X22347461Y-10975000D01*
X22350368Y-10983999D01*
X22350640Y-10984800D01*
X22364879Y-11020178D01*
X22381999Y-11051406D01*
X22401980Y-11078460D01*
X22424804Y-11101320D01*
X22450451Y-11119965D01*
X22478900Y-11134374D01*
X22491732Y-11139174D01*
X22516100Y-11145429D01*
X22543586Y-11149018D01*
X22572939Y-11149891D01*
X22602908Y-11147998D01*
X22625812Y-11144588D01*
X22657071Y-11136363D01*
X22685356Y-11124192D01*
X22710460Y-11108249D01*
X22732177Y-11088707D01*
X22750300Y-11065737D01*
X22764623Y-11039514D01*
X22771141Y-11022786D01*
X22773881Y-11014202D01*
X22775797Y-11006582D01*
X22777045Y-10998661D01*
X22777777Y-10989177D01*
X22778147Y-10976869D01*
X22778287Y-10964248D01*
X22777689Y-10938534D01*
X22775302Y-10916516D01*
X22770831Y-10897021D01*
X22763982Y-10878881D01*
X22754459Y-10860923D01*
X22750745Y-10854941D01*
X22740173Y-10839729D01*
X22728393Y-10825476D01*
X22714905Y-10811784D01*
X22699211Y-10798256D01*
X22680814Y-10784497D01*
X22659213Y-10770109D01*
X22633911Y-10754696D01*
X22604409Y-10737861D01*
X22601673Y-10736342D01*
X22577599Y-10722781D01*
X22557654Y-10711042D01*
X22541353Y-10700803D01*
X22528208Y-10691741D01*
X22517735Y-10683532D01*
X22509446Y-10675853D01*
X22507397Y-10673696D01*
X22498009Y-10661923D01*
X22492463Y-10650400D01*
X22490002Y-10637193D01*
X22489689Y-10628474D01*
X22491745Y-10608581D01*
X22497843Y-10591474D01*
X22507878Y-10577414D01*
X22511449Y-10573998D01*
X22521824Y-10566376D01*
X22533095Y-10561479D01*
X22546462Y-10558984D01*
X22563127Y-10558566D01*
X22568069Y-10558754D01*
X22580222Y-10559603D01*
X22588987Y-10561032D01*
X22596065Y-10563436D01*
X22602235Y-10566664D01*
X22616599Y-10577535D01*
X22629855Y-10592766D01*
X22642240Y-10612648D01*
X22647116Y-10622205D01*
X22658948Y-10646655D01*
X22693302Y-10637234D01*
X22715720Y-10631028D01*
X22733651Y-10625911D01*
X22747542Y-10621728D01*
X22757842Y-10618323D01*
X22764999Y-10615540D01*
X22769459Y-10613222D01*
X22771672Y-10611214D01*
X22772126Y-10609763D01*
X22770966Y-10604094D01*
X22767931Y-10595067D01*
X22763516Y-10583828D01*
X22758215Y-10571523D01*
X22752524Y-10559300D01*
X22746938Y-10548303D01*
X22741952Y-10539680D01*
X22741675Y-10539251D01*
X22725850Y-10518723D01*
X22706496Y-10499674D01*
X22685054Y-10483388D01*
X22667509Y-10473280D01*
X22649884Y-10465163D01*
X22633809Y-10459183D01*
X22617919Y-10455048D01*
X22600847Y-10452466D01*
X22581226Y-10451146D01*
X22562224Y-10450800D01*
X22545884Y-10450835D01*
X22533310Y-10451157D01*
X22523181Y-10451895D01*
X22514175Y-10453179D01*
X22504970Y-10455140D01*
X22496755Y-10457235D01*
X22466557Y-10467538D01*
X22439852Y-10481425D01*
X22416749Y-10498800D01*
X22397357Y-10519567D01*
X22381785Y-10543629D01*
X22371207Y-10567798D01*
X22368525Y-10575831D01*
X22366576Y-10583162D01*
X22365211Y-10590936D01*
X22364280Y-10600294D01*
X22363631Y-10612380D01*
X22363115Y-10628336D01*
X22363081Y-10629569D01*
X22362710Y-10645621D01*
X22362642Y-10657647D01*
X22362957Y-10666708D01*
X22363734Y-10673863D01*
X22365051Y-10680171D01*
X22366989Y-10686693D01*
X22367454Y-10688106D01*
X22378249Y-10712897D01*
X22393680Y-10736845D01*
X22413298Y-10759396D01*
X22436659Y-10780000D01*
X22448968Y-10788965D01*
X22456854Y-10794107D01*
X22468224Y-10801181D01*
X22482128Y-10809612D01*
X22497620Y-10818830D01*
X22513750Y-10828260D01*
X22520230Y-10832000D01*
X22543818Y-10845669D01*
X22563425Y-10857313D01*
X22579573Y-10867279D01*
X22592784Y-10875915D01*
X22603581Y-10883568D01*
X22612484Y-10890587D01*
X22620017Y-10897319D01*
X22623602Y-10900859D01*
X22635374Y-10914442D01*
X22643154Y-10927686D01*
X22647648Y-10942209D01*
X22649564Y-10959630D01*
X22649597Y-10960431D01*
X22648713Y-10981488D01*
X22644130Y-10999354D01*
X22635695Y-11014492D01*
X22629120Y-11022062D01*
X22617677Y-11031798D01*
X22605582Y-11038210D01*
X22591505Y-11041791D01*
X22574114Y-11043035D01*
X22572405Y-11043048D01*
X22560519Y-11042889D01*
X22551901Y-11042069D01*
X22544737Y-11040251D01*
X22537215Y-11037093D01*
X22535048Y-11036046D01*
X22518745Y-11025440D01*
X22503763Y-11010641D01*
X22490723Y-10992495D01*
X22480245Y-10971852D01*
X22473535Y-10951912D01*
X22471258Y-10943767D01*
X22469271Y-10937780D01*
X22468209Y-10935557D01*
X22465465Y-10935668D01*
X22458596Y-10936682D01*
X22448452Y-10938432D01*
X22435884Y-10940751D01*
X22421743Y-10943472D01*
X22406879Y-10946425D01*
X22392143Y-10949445D01*
X22378386Y-10952363D01*
X22366459Y-10955011D01*
X22357211Y-10957223D01*
X22354163Y-10958027D01*
X22348073Y-10960467D01*
X22344799Y-10963245D01*
X22344619Y-10963922D01*
X22260631Y-10963922D01*
X22260631Y-10815361D01*
X22260631Y-9846956D01*
X22744834Y-10331158D01*
G37*
%TD*%
M02*
