<?xml version="1.0" encoding="UTF-8" standalone="no"?>
<!-- Created with Inkscape (http://www.inkscape.org/) -->

<svg
   width="1in"
   height="1in"
   viewBox="0 0 25.4 25.4"
   version="1.1"
   id="svg1"
   inkscape:version="1.3.2 (091e20e, 2023-11-25, custom)"
   sodipodi:docname="inkscape_template.svg"
   inkscape:export-filename="output\pcb_mask.svg"
   inkscape:export-xdpi="96"
   inkscape:export-ydpi="96"
   xml:space="preserve"
   xmlns:inkscape="http://www.inkscape.org/namespaces/inkscape"
   xmlns:sodipodi="http://sodipodi.sourceforge.net/DTD/sodipodi-0.dtd"
   xmlns="http://www.w3.org/2000/svg"
   xmlns:svg="http://www.w3.org/2000/svg"><sodipodi:namedview
     id="namedview1"
     pagecolor="#ffffff"
     bordercolor="#000000"
     borderopacity="0.25"
     inkscape:showpageshadow="2"
     inkscape:pageopacity="0.0"
     inkscape:pagecheckerboard="0"
     inkscape:deskcolor="#d1d1d1"
     inkscape:document-units="in"
     inkscape:zoom="5.7941077"
     inkscape:cx="34.690415"
     inkscape:cy="63.253915"
     inkscape:window-width="1920"
     inkscape:window-height="1009"
     inkscape:window-x="-8"
     inkscape:window-y="-8"
     inkscape:window-maximized="1"
     inkscape:current-layer="layer1" /><defs
     id="defs1" /><g
     id="g2"
     style="display:inline"
     inkscape:label="FrontPCB"><g
       inkscape:groupmode="layer"
       id="layer4"
       inkscape:label="PCB_silkscreen"
       style="display:inline"><path
         style="display:inline;fill:#f9f9f9"
         d="m 9.6781792,16.521728 c 0.8708168,-0.162242 1.4129968,-0.654232 1.6282198,-1.477493 0.07436,-0.284431 0.09018,-0.431835 0.09893,-0.921735 l 0.0085,-0.475873 H 10.711065 10.0083 l -0.0096,0.458724 c -0.01046,0.502222 -0.02689,0.618753 -0.1132389,0.803274 -0.1344331,0.287277 -0.3668763,0.40691 -0.7906125,0.40691 -0.5743407,0 -0.8317443,-0.233801 -0.8906784,-0.80901 -0.024617,-0.240263 -0.024617,-3.160091 0,-3.400355 0.058934,-0.575208 0.3163377,-0.80901 0.8906784,-0.80901 0.3005361,0 0.4805615,0.05166 0.626452,0.179749 0.2127081,0.18676 0.2824214,0.465903 0.2824214,1.130856 v 0.324006 h 0.703091 0.703091 v -0.360796 c 0,-0.522215 -0.04044,-0.828198 -0.154419,-1.168406 C 11.150753,10.089818 11.003035,9.8436453 10.793636,9.6328113 10.517078,9.3543566 10.158635,9.1809616 9.6693744,9.0889556 c -0.2196124,-0.0413 -0.9293412,-0.0413 -1.1489536,0 -0.7138588,0.134243 -1.1836496,0.4609377 -1.4638164,1.0179464 -0.1340611,0.266531 -0.2230465,0.59469 -0.260012,0.958867 -0.013243,0.130465 -0.01696,0.706864 -0.012055,1.869193 0.0076,1.80177 0.00491,1.743754 0.097483,2.102616 0.2223674,0.86205 0.8051559,1.36636 1.7327174,1.49939 0.2196076,0.0315 0.8620004,0.02229 1.0634414,-0.01524 z m 7.4982438,0.0074 c 0.856882,-0.17255 1.420883,-0.667773 1.619447,-1.421962 0.03655,-0.138814 0.04505,-0.216668 0.05219,-0.478055 0.0094,-0.34464 -0.0068,-0.504543 -0.07526,-0.740682 -0.153179,-0.528588 -0.519942,-0.969479 -1.146486,-1.378206 -0.161099,-0.105093 -0.454469,-0.272345 -0.980294,-0.558869 -0.331177,-0.18046 -0.529517,-0.31651 -0.675757,-0.463532 -0.198954,-0.200017 -0.252696,-0.346943 -0.220583,-0.603049 0.04837,-0.385749 0.257253,-0.60257 0.624858,-0.648599 0.506255,-0.06339 0.848493,0.1889 1.090481,0.803876 0.03155,0.08017 0.05982,0.149271 0.06282,0.153559 0.003,0.0043 0.286769,-0.07288 0.630589,-0.171485 0.509885,-0.146232 0.625153,-0.184722 0.625271,-0.208789 2.66e-4,-0.05454 -0.132322,-0.433548 -0.196871,-0.562753 -0.301485,-0.6034717 -0.786438,-0.9859014 -1.449247,-1.1428634 -0.222787,-0.05276 -0.714612,-0.07314 -0.990645,-0.04105 -0.858894,0.09985 -1.452228,0.5398757 -1.690853,1.2539594 -0.087,0.260358 -0.10521,0.39346 -0.104264,0.76229 7.69e-4,0.300051 0.0056,0.36014 0.03897,0.48016 0.08352,0.300788 0.273555,0.60678 0.525394,0.846002 0.269643,0.256134 0.509873,0.414601 1.275514,0.841389 0.499265,0.278303 0.738588,0.435692 0.919712,0.604842 0.240443,0.224548 0.337759,0.429369 0.338039,0.711472 4.64e-4,0.468095 -0.275427,0.788758 -0.727465,0.845517 -0.530898,0.06666 -1.016591,-0.371473 -1.158201,-1.044793 -0.01495,-0.07109 -0.02978,-0.132595 -0.03296,-0.136679 -0.0032,-0.0041 -0.314285,0.05765 -0.691356,0.137189 -0.534205,0.112683 -0.685552,0.150293 -0.685442,0.170336 7.8e-5,0.01415 0.03507,0.129901 0.07777,0.257229 0.335852,1.001626 0.955319,1.588644 1.847636,1.750854 0.250102,0.04546 0.830755,0.0363 1.096997,-0.01731 z"
         id="path2-9"
         sodipodi:nodetypes="sssccccssssscscccscsscsscccscsccsssssscssssssscsssssscsscccc" /></g></g></svg>
